<?xml version="1.0" encoding="UTF-8" standalone="no"?><!DOCTYPE svg PUBLIC "-//W3C//DTD SVG 1.1//EN" "http://www.w3.org/Graphics/SVG/1.1/DTD/svg11.dtd"><svg width="100%" height="100%" viewBox="0 0 1600 900" version="1.1" xmlns="http://www.w3.org/2000/svg" xmlns:xlink="http://www.w3.org/1999/xlink" xml:space="preserve" style="fill-rule:evenodd;clip-rule:evenodd;stroke-linecap:round;stroke-miterlimit:1.5;"><g><circle cx="800" cy="371.394" r="164.607" style="fill:#adc7ec;"/><g><g><g><rect x="609.79" y="407.988" width="126.807" height="76.84" style="fill:#fff;"/><path d="M739.361,487.592l-132.335,0l0,-82.368l132.335,0l0,82.368Zm-126.807,-76.84l0,71.312l121.278,0l0,-71.312l-121.278,0Z" style="fill:#173865;"/></g></g><g><g><rect x="736.597" y="407.988" width="126.807" height="76.84" style="fill:#fff;"/><path d="M866.168,487.592l-132.336,0l0,-82.368l132.336,0l0,82.368Zm-126.807,-76.84l0,71.312l121.278,0l0,-71.312l-121.278,0Z" style="fill:#173865;"/></g></g><g><g><rect x="863.403" y="407.988" width="126.807" height="76.84" style="fill:#fff;"/><path d="M992.974,487.592l-132.335,0l0,-82.368l132.335,0l0,82.368Zm-126.806,-76.84l0,71.312l121.278,0l0,-71.312l-121.278,0Z" style="fill:#173865;"/></g></g><g><g><rect x="800" y="331.148" width="126.807" height="76.84" style="fill:#fff;"/><path d="M929.571,410.752l-132.335,0l0,-82.368l132.335,0l0,82.368Zm-126.807,-76.84l0,71.312l121.279,0l0,-71.312l-121.279,0Z" style="fill:#173865;"/></g></g><g><g><rect x="673.193" y="331.148" width="126.807" height="76.84" style="fill:#fff;"/><path d="M802.764,410.752l-132.335,0l0,-82.368l132.335,0l0,82.368Zm-126.807,-76.84l0,71.312l121.279,0l0,-71.312l-121.279,0Z" style="fill:#173865;"/></g></g><g><rect x="736.597" y="254.308" width="126.807" height="76.84" style="fill:#fff;"/><path d="M866.168,333.912l-132.336,0l0,-82.368l132.336,0l0,82.368Zm-126.807,-76.84l0,71.312l121.278,0l0,-71.312l-121.278,0Z" style="fill:#173865;"/><g><path d="M778.925,276.413l0.145,0.003l0.145,0.004l0.144,0.007l0.144,0.008l0.143,0.01l0.143,0.012l0.142,0.013l0.142,0.016l0.141,0.017l0.141,0.019l0.14,0.02l0.14,0.022l0.14,0.024l0.139,0.026l0.138,0.028l0.137,0.029l0.137,0.03l0.136,0.033l0.137,0.034l0.135,0.036l0.134,0.037l0.134,0.039l0.133,0.04l0.132,0.043l0.132,0.043l0.131,0.045l0.13,0.047l0.13,0.049l0.129,0.05l0.127,0.051l0.127,0.053l0.127,0.054l0.125,0.056l0.125,0.057l0.124,0.059l0.123,0.06l0.122,0.062l0.122,0.063l0.12,0.065l0.119,0.066l0.119,0.067l0.118,0.069l0.116,0.069l0.116,0.072l0.115,0.073l0.114,0.074l0.113,0.075l0.112,0.077l0.111,0.078l0.11,0.079l0.109,0.081l0.108,0.081l0.107,0.083l0.106,0.085l0.105,0.086l0.104,0.086l0.103,0.088l0.101,0.089l0.101,0.09l0.1,0.092l0.098,0.093l0.097,0.093l0.096,0.096l0.095,0.096l0.094,0.097l0.093,0.098l0.092,0.1l0.09,0.101l0.089,0.101l0.088,0.103l0.087,0.104l0.085,0.105l0.084,0.106l0.084,0.107l0.082,0.108l0.08,0.109l0.079,0.11l0.078,0.111l0.077,0.112l0.075,0.113l0.074,0.114l0.073,0.115l0.071,0.116l0.07,0.116l0.069,0.118l0.067,0.119l0.066,0.119l0.065,0.121l0.063,0.121l0.062,0.122l0.06,0.123l0.059,0.124l0.057,0.125l0.056,0.125l0.054,0.126l0.053,0.128l0.052,0.128l0.049,0.128l0.049,0.13l0.047,0.13l0.045,0.131l0.044,0.132l0.041,0.132l0.041,0.133l0.039,0.134l0.037,0.135l0.036,0.135l0.034,0.135l0.033,0.137l0.03,0.137l0.029,0.137l0.028,0.139l0.026,0.138l0.024,0.14l0.022,0.14l0.02,0.14l0.019,0.14l0.017,0.142l0.016,0.142l0.013,0.142l0.012,0.143l0.01,0.144l0.008,0.143l0.007,0.144l0.004,0.144l0.003,0.145l0.001,0.128l-0.003,0.135l-0.009,0.134l-0.016,0.134l-0.022,0.132l-0.029,0.132l-0.036,0.129l-0.042,0.128l-0.048,0.126l-0.055,0.123l-0.061,0.12l-0.066,0.117l-0.072,0.113l-0.078,0.11l-0.083,0.105l-0.089,0.102l-0.093,0.097l-0.098,0.092l-0.103,0.087l-0.106,0.082l-0.111,0.076l-0.114,0.071l-0.118,0.065l-0.121,0.059l-0.123,0.053l-0.127,0.047l-0.128,0.041l-0.13,0.034l-0.132,0.027l-0.133,0.021l-0.133,0.014l-0.135,0.008l-0.134,0.001l-0.135,-0.006l-0.133,-0.013l-0.134,-0.019l-0.132,-0.026l-0.13,-0.032l-0.129,-0.039l-0.127,-0.045l-0.124,-0.052l-0.121,-0.057l-0.119,-0.064l-0.115,-0.069l-0.112,-0.075l-0.108,-0.081l-0.103,-0.086l-0.099,-0.091l-0.095,-0.095l-0.089,-0.101l-0.085,-0.104l-0.079,-0.109l-0.074,-0.112l-0.068,-0.116l-0.062,-0.12l-0.056,-0.122l-0.05,-0.125l-0.044,-0.127l-0.037,-0.129l-0.031,-0.131l-0.024,-0.133l-0.017,-0.133l-0.011,-0.134l-0.005,-0.135l0,-0.093l-0.002,-0.076l-0.002,-0.077l-0.003,-0.076l-0.005,-0.075l-0.005,-0.075l-0.006,-0.075l-0.007,-0.074l-0.008,-0.074l-0.009,-0.074l-0.01,-0.074l-0.011,-0.073l-0.011,-0.072l-0.013,-0.073l-0.013,-0.072l-0.014,-0.072l-0.015,-0.071l-0.016,-0.072l-0.017,-0.07l-0.018,-0.071l-0.018,-0.07l-0.02,-0.07l-0.02,-0.069l-0.021,-0.069l-0.022,-0.069l-0.023,-0.069l-0.023,-0.067l-0.024,-0.068l-0.026,-0.067l-0.025,-0.067l-0.027,-0.066l-0.028,-0.066l-0.028,-0.066l-0.029,-0.065l-0.03,-0.065l-0.03,-0.065l-0.032,-0.064l-0.032,-0.063l-0.033,-0.063l-0.033,-0.063l-0.035,-0.062l-0.035,-0.062l-0.035,-0.062l-0.037,-0.061l-0.038,-0.061l-0.037,-0.059l-0.039,-0.06l-0.04,-0.059l-0.04,-0.058l-0.04,-0.058l-0.042,-0.058l-0.042,-0.057l-0.043,-0.057l-0.043,-0.056l-0.044,-0.055l-0.046,-0.056l-0.045,-0.054l-0.046,-0.053l-0.047,-0.054l-0.047,-0.053l-0.048,-0.052l-0.049,-0.051l-0.049,-0.052l-0.05,-0.05l-0.05,-0.05l-0.052,-0.049l-0.051,-0.049l-0.052,-0.048l-0.053,-0.047l-0.053,-0.047l-0.054,-0.046l-0.055,-0.046l-0.055,-0.044l-0.055,-0.044l-0.056,-0.044l-0.057,-0.043l-0.057,-0.042l-0.057,-0.042l-0.058,-0.04l-0.059,-0.04l-0.059,-0.04l-0.06,-0.039l-0.059,-0.037l-0.061,-0.038l-0.061,-0.037l-0.062,-0.035l-0.061,-0.035l-0.063,-0.035l-0.063,-0.033l-0.062,-0.033l-0.064,-0.032l-0.064,-0.032l-0.065,-0.03l-0.065,-0.03l-0.065,-0.029l-0.066,-0.028l-0.065,-0.028l-0.067,-0.027l-0.067,-0.026l-0.067,-0.025l-0.068,-0.024l-0.068,-0.023l-0.068,-0.023l-0.069,-0.022l-0.069,-0.021l-0.069,-0.02l-0.07,-0.02l-0.07,-0.018l-0.07,-0.018l-0.071,-0.017l-0.072,-0.016l-0.071,-0.015l-0.072,-0.014l-0.072,-0.013l-0.072,-0.013l-0.073,-0.011l-0.073,-0.011l-0.074,-0.01l-0.074,-0.009l-0.074,-0.008l-0.074,-0.007l-0.075,-0.006l-0.075,-0.005l-0.076,-0.005l-0.075,-0.003l-0.076,-0.002l-0.077,-0.002l-0.076,0l-0.077,0l-0.077,0.002l-0.076,0.002l-0.075,0.003l-0.076,0.005l-0.075,0.005l-0.074,0.006l-0.075,0.007l-0.074,0.008l-0.074,0.009l-0.073,0.01l-0.074,0.011l-0.073,0.011l-0.072,0.013l-0.072,0.013l-0.072,0.014l-0.071,0.015l-0.071,0.016l-0.071,0.017l-0.07,0.018l-0.071,0.018l-0.07,0.02l-0.069,0.02l-0.069,0.021l-0.069,0.022l-0.068,0.023l-0.068,0.023l-0.068,0.024l-0.067,0.025l-0.067,0.026l-0.066,0.027l-0.066,0.027l-0.066,0.029l-0.065,0.029l-0.065,0.03l-0.065,0.03l-0.063,0.032l-0.064,0.032l-0.063,0.033l-0.063,0.033l-0.062,0.035l-0.062,0.035l-0.062,0.036l-0.061,0.036l-0.06,0.037l-0.06,0.038l-0.06,0.039l-0.059,0.039l-0.058,0.04l-0.059,0.041l-0.057,0.042l-0.057,0.042l-0.057,0.043l-0.056,0.044l-0.056,0.044l-0.054,0.044l-0.054,0.046l-0.054,0.046l-0.054,0.047l-0.053,0.047l-0.052,0.048l-0.051,0.049l-0.051,0.049l-0.051,0.05l-0.05,0.051l-0.049,0.05l-0.048,0.052l-0.049,0.052l-0.047,0.053l-0.047,0.053l-0.046,0.054l-0.045,0.054l-0.045,0.055l-0.045,0.056l-0.043,0.056l-0.043,0.057l-0.042,0.057l-0.041,0.057l-0.041,0.058l-0.04,0.059l-0.04,0.059l-0.038,0.06l-0.039,0.06l-0.037,0.061l-0.036,0.06l-0.036,0.061l-0.035,0.063l-0.035,0.062l-0.033,0.063l-0.033,0.063l-0.032,0.063l-0.032,0.064l-0.03,0.065l-0.03,0.065l-0.029,0.065l-0.028,0.066l-0.028,0.066l-0.027,0.067l-0.025,0.066l-0.025,0.067l-0.025,0.068l-0.023,0.068l-0.023,0.068l-0.022,0.069l-0.021,0.069l-0.02,0.069l-0.019,0.07l-0.019,0.07l-0.018,0.071l-0.016,0.07l-0.016,0.072l-0.016,0.071l-0.014,0.072l-0.013,0.072l-0.013,0.073l-0.011,0.073l-0.011,0.073l-0.01,0.073l-0.009,0.074l-0.008,0.074l-0.007,0.074l-0.006,0.075l-0.005,0.075l-0.005,0.076l-0.003,0.075l-0.002,0.076l-0.002,0.077l0,0.093l-0.005,0.135l-0.01,0.134l-0.018,0.133l-0.024,0.133l-0.031,0.131l-0.037,0.129l-0.044,0.127l-0.05,0.125l-0.056,0.122l-0.062,0.12l-0.068,0.116l-0.074,0.112l-0.079,0.109l-0.084,0.104l-0.09,0.101l-0.095,0.095l-0.099,0.091l-0.103,0.086l-0.108,0.081l-0.112,0.075l-0.115,0.069l-0.118,0.064l-0.122,0.057l-0.124,0.052l-0.127,0.045l-0.129,0.039l-0.13,0.032l-0.132,0.026l-0.133,0.019l-0.134,0.013l-0.135,0.006l-0.134,-0.001l-0.135,-0.008l-0.133,-0.014l-0.133,-0.021l-0.132,-0.027l-0.13,-0.034l-0.128,-0.041l-0.126,-0.047l-0.124,-0.053l-0.121,-0.059l-0.118,-0.065l-0.114,-0.071l-0.111,-0.076l-0.106,-0.082l-0.103,-0.087l-0.098,-0.092l-0.093,-0.097l-0.088,-0.102l-0.084,-0.105l-0.077,-0.11l-0.073,-0.113l-0.066,-0.117l-0.061,-0.12l-0.054,-0.123l-0.049,-0.126l-0.042,-0.128l-0.035,-0.129l-0.03,-0.132l-0.022,-0.132l-0.016,-0.134l-0.009,-0.134l-0.003,-0.135l0.001,-0.127l0.003,-0.145l0.004,-0.145l0.007,-0.144l0.008,-0.144l0.01,-0.143l0.012,-0.142l0.013,-0.143l0.016,-0.142l0.017,-0.141l0.019,-0.141l0.02,-0.141l0.023,-0.139l0.024,-0.14l0.025,-0.138l0.028,-0.139l0.029,-0.137l0.031,-0.137l0.032,-0.137l0.034,-0.135l0.036,-0.135l0.037,-0.135l0.039,-0.134l0.04,-0.133l0.043,-0.132l0.043,-0.132l0.046,-0.131l0.046,-0.13l0.049,-0.13l0.05,-0.129l0.051,-0.128l0.053,-0.127l0.054,-0.126l0.056,-0.125l0.058,-0.125l0.058,-0.124l0.06,-0.123l0.062,-0.122l0.063,-0.121l0.065,-0.121l0.066,-0.119l0.067,-0.119l0.068,-0.117l0.071,-0.118l0.071,-0.115l0.073,-0.115l0.074,-0.114l0.075,-0.113l0.077,-0.112l0.078,-0.111l0.079,-0.111l0.081,-0.109l0.082,-0.107l0.083,-0.107l0.084,-0.106l0.085,-0.105l0.087,-0.104l0.088,-0.103l0.09,-0.102l0.09,-0.1l0.091,-0.099l0.093,-0.099l0.094,-0.097l0.095,-0.097l0.096,-0.094l0.097,-0.094l0.099,-0.093l0.099,-0.092l0.101,-0.09l0.101,-0.089l0.103,-0.088l0.104,-0.087l0.105,-0.086l0.106,-0.084l0.107,-0.083l0.108,-0.081l0.109,-0.081l0.11,-0.079l0.111,-0.078l0.112,-0.077l0.113,-0.075l0.114,-0.074l0.115,-0.073l0.116,-0.072l0.117,-0.069l0.117,-0.069l0.119,-0.067l0.119,-0.066l0.121,-0.065l0.121,-0.063l0.122,-0.062l0.123,-0.06l0.124,-0.059l0.125,-0.057l0.125,-0.056l0.127,-0.054l0.127,-0.053l0.128,-0.052l0.128,-0.049l0.13,-0.049l0.13,-0.047l0.131,-0.045l0.132,-0.043l0.132,-0.043l0.133,-0.04l0.134,-0.039l0.134,-0.037l0.135,-0.036l0.136,-0.034l0.137,-0.033l0.137,-0.03l0.138,-0.029l0.137,-0.028l0.139,-0.026l0.14,-0.024l0.14,-0.022l0.14,-0.02l0.141,-0.019l0.141,-0.017l0.142,-0.016l0.142,-0.013l0.143,-0.012l0.144,-0.01l0.143,-0.008l0.144,-0.007l0.145,-0.004l0.145,-0.003l0.145,-0.001l0.144,0.001Z" style="fill:#173865;"/><path d="M821.364,276.413l0.145,0.003l0.145,0.004l0.144,0.007l0.143,0.008l0.144,0.01l0.143,0.012l0.142,0.013l0.142,0.016l0.141,0.017l0.141,0.019l0.14,0.02l0.14,0.022l0.14,0.024l0.139,0.026l0.137,0.028l0.138,0.029l0.137,0.03l0.137,0.033l0.136,0.034l0.135,0.036l0.134,0.037l0.134,0.039l0.133,0.04l0.132,0.043l0.132,0.043l0.131,0.045l0.13,0.047l0.13,0.049l0.128,0.049l0.128,0.052l0.128,0.053l0.126,0.054l0.125,0.056l0.125,0.057l0.124,0.059l0.123,0.06l0.122,0.062l0.121,0.063l0.121,0.065l0.119,0.066l0.119,0.067l0.117,0.069l0.117,0.069l0.116,0.072l0.115,0.073l0.114,0.074l0.113,0.075l0.112,0.077l0.111,0.078l0.11,0.079l0.109,0.081l0.108,0.081l0.107,0.083l0.106,0.084l0.105,0.086l0.104,0.087l0.103,0.088l0.101,0.089l0.101,0.09l0.099,0.092l0.099,0.093l0.097,0.094l0.096,0.095l0.095,0.096l0.094,0.097l0.093,0.099l0.091,0.099l0.09,0.1l0.09,0.102l0.088,0.103l0.087,0.104l0.085,0.105l0.084,0.106l0.083,0.106l0.082,0.108l0.081,0.11l0.079,0.11l0.078,0.111l0.077,0.112l0.075,0.113l0.074,0.114l0.073,0.115l0.071,0.115l0.071,0.118l0.068,0.117l0.067,0.119l0.066,0.119l0.065,0.121l0.063,0.121l0.062,0.122l0.06,0.123l0.058,0.124l0.058,0.125l0.056,0.125l0.054,0.126l0.053,0.127l0.051,0.128l0.05,0.129l0.049,0.13l0.046,0.13l0.046,0.131l0.043,0.132l0.043,0.132l0.04,0.133l0.039,0.134l0.037,0.135l0.036,0.135l0.034,0.135l0.032,0.137l0.031,0.137l0.029,0.137l0.028,0.139l0.025,0.138l0.024,0.14l0.023,0.139l0.02,0.141l0.019,0.141l0.017,0.141l0.016,0.142l0.013,0.143l0.012,0.142l0.01,0.143l0.008,0.144l0.007,0.144l0.004,0.145l0.003,0.145l0.001,0.127l-0.003,0.135l-0.009,0.134l-0.016,0.134l-0.022,0.132l-0.03,0.132l-0.035,0.129l-0.042,0.128l-0.049,0.126l-0.054,0.123l-0.061,0.12l-0.066,0.117l-0.073,0.113l-0.077,0.11l-0.084,0.105l-0.088,0.102l-0.093,0.097l-0.098,0.092l-0.103,0.087l-0.106,0.082l-0.111,0.076l-0.114,0.071l-0.118,0.065l-0.121,0.059l-0.124,0.053l-0.126,0.047l-0.128,0.041l-0.13,0.034l-0.132,0.027l-0.133,0.021l-0.133,0.014l-0.135,0.008l-0.134,0.001l-0.135,-0.006l-0.134,-0.013l-0.133,-0.019l-0.132,-0.026l-0.13,-0.032l-0.129,-0.039l-0.127,-0.045l-0.124,-0.052l-0.122,-0.057l-0.118,-0.064l-0.115,-0.069l-0.112,-0.075l-0.108,-0.081l-0.103,-0.086l-0.099,-0.091l-0.095,-0.095l-0.09,-0.101l-0.084,-0.104l-0.079,-0.109l-0.074,-0.112l-0.068,-0.116l-0.062,-0.12l-0.056,-0.122l-0.05,-0.125l-0.044,-0.127l-0.037,-0.129l-0.031,-0.131l-0.024,-0.133l-0.018,-0.133l-0.01,-0.134l-0.005,-0.135l0,-0.093l-0.002,-0.077l-0.002,-0.076l-0.003,-0.075l-0.005,-0.076l-0.005,-0.075l-0.006,-0.075l-0.007,-0.074l-0.008,-0.074l-0.009,-0.074l-0.01,-0.073l-0.011,-0.073l-0.011,-0.073l-0.013,-0.073l-0.013,-0.072l-0.014,-0.072l-0.016,-0.071l-0.016,-0.072l-0.016,-0.07l-0.018,-0.071l-0.019,-0.07l-0.019,-0.07l-0.02,-0.069l-0.021,-0.069l-0.022,-0.069l-0.023,-0.068l-0.023,-0.068l-0.025,-0.068l-0.025,-0.067l-0.025,-0.066l-0.027,-0.067l-0.028,-0.066l-0.028,-0.066l-0.029,-0.065l-0.03,-0.065l-0.03,-0.065l-0.032,-0.064l-0.032,-0.063l-0.033,-0.063l-0.033,-0.063l-0.035,-0.062l-0.035,-0.063l-0.036,-0.061l-0.036,-0.06l-0.037,-0.061l-0.039,-0.06l-0.038,-0.06l-0.04,-0.059l-0.04,-0.059l-0.041,-0.058l-0.041,-0.057l-0.042,-0.057l-0.043,-0.056l-0.043,-0.057l-0.045,-0.056l-0.045,-0.055l-0.045,-0.054l-0.046,-0.054l-0.047,-0.053l-0.047,-0.053l-0.049,-0.052l-0.048,-0.052l-0.049,-0.05l-0.05,-0.051l-0.051,-0.05l-0.05,-0.049l-0.052,-0.049l-0.052,-0.048l-0.053,-0.047l-0.054,-0.047l-0.054,-0.046l-0.054,-0.046l-0.054,-0.044l-0.056,-0.044l-0.056,-0.044l-0.057,-0.043l-0.057,-0.042l-0.057,-0.042l-0.058,-0.04l-0.059,-0.041l-0.059,-0.039l-0.06,-0.039l-0.06,-0.038l-0.06,-0.037l-0.061,-0.036l-0.062,-0.036l-0.062,-0.035l-0.062,-0.035l-0.063,-0.033l-0.063,-0.033l-0.064,-0.032l-0.063,-0.032l-0.065,-0.03l-0.065,-0.03l-0.065,-0.029l-0.066,-0.029l-0.066,-0.027l-0.066,-0.027l-0.067,-0.026l-0.067,-0.025l-0.068,-0.024l-0.068,-0.023l-0.068,-0.023l-0.069,-0.022l-0.069,-0.021l-0.069,-0.02l-0.07,-0.02l-0.071,-0.018l-0.07,-0.018l-0.071,-0.017l-0.071,-0.016l-0.071,-0.015l-0.072,-0.014l-0.072,-0.013l-0.072,-0.013l-0.073,-0.011l-0.074,-0.011l-0.073,-0.01l-0.074,-0.009l-0.074,-0.008l-0.075,-0.007l-0.074,-0.006l-0.075,-0.005l-0.076,-0.005l-0.075,-0.003l-0.076,-0.002l-0.077,-0.002l-0.077,0l-0.076,0l-0.077,0.002l-0.076,0.002l-0.075,0.003l-0.076,0.005l-0.075,0.005l-0.075,0.006l-0.074,0.007l-0.074,0.008l-0.074,0.009l-0.074,0.01l-0.073,0.011l-0.073,0.011l-0.072,0.013l-0.072,0.013l-0.072,0.014l-0.071,0.015l-0.072,0.016l-0.07,0.017l-0.071,0.018l-0.07,0.018l-0.07,0.02l-0.069,0.02l-0.069,0.021l-0.069,0.022l-0.068,0.023l-0.068,0.023l-0.068,0.024l-0.067,0.025l-0.067,0.026l-0.067,0.027l-0.065,0.028l-0.066,0.028l-0.065,0.029l-0.065,0.03l-0.065,0.03l-0.064,0.032l-0.064,0.032l-0.062,0.033l-0.063,0.033l-0.063,0.035l-0.061,0.035l-0.062,0.035l-0.061,0.037l-0.061,0.038l-0.059,0.037l-0.06,0.039l-0.059,0.04l-0.059,0.04l-0.057,0.04l-0.058,0.042l-0.058,0.042l-0.056,0.043l-0.056,0.044l-0.055,0.044l-0.055,0.044l-0.055,0.046l-0.054,0.046l-0.053,0.047l-0.053,0.047l-0.052,0.048l-0.051,0.049l-0.052,0.049l-0.05,0.05l-0.05,0.05l-0.049,0.052l-0.049,0.051l-0.048,0.052l-0.047,0.053l-0.047,0.054l-0.046,0.053l-0.045,0.054l-0.046,0.056l-0.044,0.055l-0.043,0.056l-0.043,0.057l-0.042,0.057l-0.042,0.058l-0.04,0.058l-0.04,0.058l-0.04,0.059l-0.039,0.06l-0.038,0.06l-0.037,0.06l-0.037,0.061l-0.035,0.062l-0.035,0.062l-0.035,0.062l-0.033,0.063l-0.033,0.063l-0.032,0.063l-0.032,0.064l-0.03,0.065l-0.03,0.065l-0.029,0.065l-0.028,0.066l-0.028,0.066l-0.027,0.066l-0.025,0.067l-0.026,0.067l-0.024,0.068l-0.023,0.067l-0.023,0.069l-0.022,0.069l-0.021,0.069l-0.02,0.069l-0.02,0.07l-0.018,0.07l-0.018,0.071l-0.017,0.07l-0.016,0.072l-0.015,0.071l-0.014,0.072l-0.013,0.072l-0.013,0.073l-0.011,0.072l-0.011,0.073l-0.01,0.074l-0.009,0.074l-0.008,0.074l-0.007,0.074l-0.006,0.075l-0.005,0.075l-0.005,0.075l-0.003,0.076l-0.002,0.077l-0.002,0.076l0,0.093l-0.005,0.135l-0.011,0.134l-0.017,0.133l-0.024,0.133l-0.031,0.131l-0.037,0.129l-0.044,0.127l-0.05,0.125l-0.056,0.122l-0.062,0.12l-0.068,0.116l-0.074,0.112l-0.079,0.109l-0.085,0.104l-0.089,0.101l-0.095,0.095l-0.099,0.091l-0.103,0.086l-0.108,0.081l-0.112,0.075l-0.115,0.069l-0.119,0.064l-0.121,0.057l-0.124,0.052l-0.127,0.045l-0.129,0.039l-0.13,0.032l-0.132,0.026l-0.134,0.019l-0.133,0.013l-0.135,0.006l-0.134,-0.001l-0.135,-0.008l-0.133,-0.014l-0.133,-0.021l-0.132,-0.027l-0.13,-0.034l-0.128,-0.041l-0.127,-0.047l-0.123,-0.053l-0.121,-0.059l-0.118,-0.065l-0.114,-0.071l-0.111,-0.076l-0.106,-0.082l-0.103,-0.087l-0.098,-0.092l-0.093,-0.097l-0.089,-0.102l-0.083,-0.105l-0.078,-0.11l-0.072,-0.113l-0.066,-0.117l-0.061,-0.12l-0.055,-0.123l-0.048,-0.126l-0.042,-0.128l-0.036,-0.129l-0.029,-0.132l-0.022,-0.132l-0.016,-0.134l-0.009,-0.134l-0.003,-0.135l0.001,-0.128l0.003,-0.145l0.004,-0.144l0.007,-0.144l0.008,-0.143l0.01,-0.144l0.012,-0.143l0.013,-0.142l0.016,-0.142l0.017,-0.142l0.019,-0.14l0.02,-0.14l0.022,-0.14l0.024,-0.14l0.026,-0.138l0.028,-0.139l0.029,-0.137l0.03,-0.137l0.033,-0.137l0.034,-0.135l0.036,-0.135l0.037,-0.135l0.039,-0.134l0.04,-0.133l0.042,-0.132l0.044,-0.132l0.045,-0.131l0.047,-0.13l0.049,-0.13l0.049,-0.128l0.052,-0.128l0.053,-0.128l0.054,-0.126l0.056,-0.125l0.057,-0.125l0.059,-0.124l0.06,-0.123l0.062,-0.122l0.063,-0.121l0.065,-0.121l0.066,-0.119l0.067,-0.119l0.069,-0.118l0.07,-0.116l0.071,-0.116l0.073,-0.115l0.074,-0.114l0.075,-0.113l0.077,-0.112l0.078,-0.111l0.079,-0.11l0.08,-0.109l0.082,-0.108l0.084,-0.107l0.084,-0.106l0.085,-0.105l0.087,-0.104l0.088,-0.103l0.089,-0.101l0.09,-0.101l0.092,-0.1l0.093,-0.098l0.094,-0.097l0.095,-0.096l0.096,-0.096l0.097,-0.093l0.098,-0.093l0.1,-0.092l0.101,-0.09l0.101,-0.089l0.103,-0.088l0.104,-0.086l0.105,-0.086l0.106,-0.085l0.107,-0.083l0.108,-0.082l0.109,-0.08l0.109,-0.079l0.112,-0.078l0.112,-0.077l0.113,-0.075l0.114,-0.074l0.115,-0.073l0.116,-0.072l0.116,-0.069l0.118,-0.069l0.119,-0.067l0.119,-0.066l0.12,-0.065l0.122,-0.063l0.122,-0.062l0.123,-0.06l0.124,-0.059l0.125,-0.057l0.125,-0.056l0.127,-0.054l0.127,-0.053l0.127,-0.051l0.129,-0.05l0.13,-0.049l0.13,-0.047l0.131,-0.045l0.132,-0.043l0.132,-0.043l0.133,-0.04l0.134,-0.039l0.134,-0.037l0.135,-0.036l0.136,-0.034l0.137,-0.033l0.137,-0.03l0.137,-0.029l0.138,-0.028l0.139,-0.026l0.14,-0.024l0.14,-0.022l0.14,-0.02l0.141,-0.019l0.141,-0.017l0.142,-0.016l0.142,-0.013l0.143,-0.012l0.143,-0.01l0.144,-0.008l0.144,-0.007l0.145,-0.004l0.145,-0.003l0.144,-0.001l0.145,0.001Z" style="fill:#173865;"/><path d="M812.735,295.063l0.162,0.011l0.162,0.021l0.16,0.031l0.158,0.04l0.155,0.05l0.152,0.059l0.148,0.068l0.144,0.077l0.139,0.085l0.133,0.094l0.127,0.101l0.122,0.109l0.114,0.116l0.107,0.123l0.099,0.129l0.092,0.135l0.083,0.14l0.075,0.145l0.065,0.149l0.057,0.153l0.047,0.156l0.038,0.159l0.028,0.16l0.018,0.162l0.009,0.163l-0.001,0.163l-0.011,0.162l-0.021,0.162l-0.031,0.16l-0.04,0.158l-0.05,0.155l-0.059,0.152l-0.068,0.148l-0.077,0.144l-0.085,0.139l-0.268,0.407l-0.272,0.411l-0.276,0.413l-0.141,0.209l-0.142,0.209l-0.144,0.209l-0.145,0.209l-0.148,0.21l-0.149,0.209l-0.151,0.209l-0.154,0.21l-0.156,0.209l-0.158,0.209l-0.162,0.208l-0.164,0.207l-0.167,0.207l-0.17,0.206l-0.173,0.206l-0.174,0.2l-0.092,0.105l-0.09,0.101l-0.092,0.101l-0.092,0.1l-0.093,0.1l-0.094,0.1l-0.095,0.099l-0.097,0.099l-0.097,0.098l-0.098,0.098l-0.099,0.097l-0.1,0.097l-0.102,0.096l-0.102,0.096l-0.104,0.095l-0.104,0.094l-0.106,0.094l-0.107,0.093l-0.108,0.093l-0.109,0.091l-0.11,0.091l-0.112,0.09l-0.113,0.09l-0.114,0.088l-0.115,0.088l-0.116,0.087l-0.117,0.086l-0.12,0.085l-0.12,0.084l-0.121,0.083l-0.123,0.082l-0.124,0.081l-0.125,0.08l-0.127,0.079l-0.128,0.078l-0.129,0.077l-0.13,0.075l-0.132,0.075l-0.133,0.073l-0.134,0.072l-0.136,0.071l-0.136,0.069l-0.138,0.068l-0.14,0.067l-0.141,0.065l-0.142,0.064l-0.143,0.063l-0.145,0.061l-0.146,0.06l-0.147,0.058l-0.149,0.057l-0.149,0.055l-0.151,0.054l-0.153,0.052l-0.153,0.051l-0.155,0.049l-0.156,0.047l-0.157,0.046l-0.158,0.045l-0.16,0.042l-0.161,0.041l-0.162,0.04l-0.163,0.037l-0.165,0.036l-0.166,0.035l-0.166,0.032l-0.169,0.031l-0.169,0.03l-0.17,0.027l-0.172,0.026l-0.173,0.024l-0.174,0.022l-0.175,0.021l-0.177,0.018l-0.178,0.017l-0.178,0.016l-0.18,0.013l-0.182,0.012l-0.182,0.01l-0.184,0.008l-0.185,0.006l-0.186,0.005l-0.187,0.002l-0.189,0.001l-0.191,-0.001l-0.189,-0.003l-0.188,-0.005l-0.187,-0.006l-0.186,-0.009l-0.184,-0.011l-0.183,-0.012l-0.183,-0.015l-0.181,-0.016l-0.18,-0.019l-0.178,-0.02l-0.177,-0.022l-0.177,-0.024l-0.175,-0.026l-0.173,-0.027l-0.173,-0.03l-0.171,-0.031l-0.17,-0.033l-0.17,-0.035l-0.167,-0.036l-0.166,-0.038l-0.166,-0.041l-0.164,-0.041l-0.162,-0.044l-0.162,-0.045l-0.16,-0.047l-0.159,-0.048l-0.157,-0.051l-0.157,-0.051l-0.155,-0.054l-0.154,-0.055l-0.152,-0.056l-0.151,-0.058l-0.15,-0.06l-0.149,-0.061l-0.147,-0.062l-0.145,-0.064l-0.145,-0.065l-0.143,-0.067l-0.142,-0.068l-0.141,-0.069l-0.139,-0.071l-0.138,-0.072l-0.137,-0.073l-0.135,-0.074l-0.134,-0.076l-0.133,-0.077l-0.131,-0.078l-0.13,-0.079l-0.128,-0.08l-0.127,-0.081l-0.126,-0.082l-0.125,-0.083l-0.124,-0.084l-0.122,-0.085l-0.121,-0.086l-0.119,-0.087l-0.118,-0.088l-0.117,-0.089l-0.116,-0.089l-0.114,-0.09l-0.114,-0.091l-0.112,-0.092l-0.111,-0.092l-0.109,-0.093l-0.109,-0.094l-0.107,-0.094l-0.107,-0.095l-0.104,-0.096l-0.104,-0.096l-0.103,-0.096l-0.102,-0.097l-0.1,-0.098l-0.1,-0.098l-0.098,-0.098l-0.097,-0.099l-0.097,-0.1l-0.095,-0.099l-0.094,-0.1l-0.093,-0.1l-0.092,-0.101l-0.092,-0.101l-0.09,-0.101l-0.092,-0.104l-0.173,-0.201l-0.173,-0.204l-0.169,-0.204l-0.166,-0.206l-0.162,-0.205l-0.16,-0.206l-0.156,-0.205l-0.154,-0.205l-0.15,-0.205l-0.149,-0.205l-0.146,-0.204l-0.143,-0.204l-0.141,-0.202l-0.138,-0.202l-0.137,-0.2l-0.136,-0.201l-0.261,-0.392l-0.257,-0.388l-0.249,-0.38l-0.086,-0.138l-0.076,-0.144l-0.068,-0.148l-0.059,-0.152l-0.05,-0.155l-0.04,-0.158l-0.031,-0.16l-0.021,-0.162l-0.011,-0.163l-0.001,-0.163l0.009,-0.162l0.018,-0.162l0.028,-0.161l0.038,-0.158l0.048,-0.156l0.056,-0.153l0.066,-0.149l0.075,-0.145l0.083,-0.14l0.091,-0.135l0.1,-0.129l0.107,-0.123l0.115,-0.116l0.121,-0.109l0.127,-0.101l0.134,-0.094l0.138,-0.085l0.144,-0.077l0.148,-0.068l0.152,-0.059l0.155,-0.049l0.158,-0.041l0.16,-0.03l0.162,-0.021l0.163,-0.011l0.163,-0.001l0.162,0.008l0.162,0.019l0.161,0.028l0.158,0.038l0.156,0.047l0.153,0.057l0.149,0.066l0.145,0.074l0.14,0.084l0.135,0.091l0.129,0.1l0.123,0.107l0.116,0.114l0.109,0.121l0.101,0.128l0.094,0.133l0.245,0.374l0.246,0.371l0.247,0.37l0.121,0.18l0.124,0.181l0.123,0.18l0.124,0.178l0.125,0.177l0.125,0.175l0.125,0.173l0.127,0.172l0.127,0.17l0.128,0.168l0.128,0.165l0.129,0.164l0.131,0.161l0.131,0.159l0.132,0.156l0.136,0.158l0.064,0.073l0.067,0.075l0.068,0.074l0.068,0.074l0.068,0.073l0.068,0.073l0.069,0.072l0.069,0.071l0.069,0.07l0.07,0.07l0.07,0.069l0.07,0.068l0.07,0.067l0.071,0.067l0.072,0.066l0.072,0.066l0.071,0.064l0.072,0.063l0.073,0.063l0.074,0.062l0.073,0.062l0.074,0.06l0.074,0.059l0.075,0.059l0.075,0.058l0.076,0.057l0.076,0.057l0.077,0.056l0.076,0.054l0.078,0.055l0.078,0.053l0.078,0.052l0.079,0.052l0.08,0.05l0.08,0.05l0.081,0.049l0.081,0.049l0.082,0.047l0.082,0.046l0.084,0.046l0.084,0.045l0.084,0.044l0.085,0.044l0.086,0.042l0.087,0.041l0.087,0.041l0.088,0.04l0.09,0.039l0.089,0.038l0.091,0.037l0.092,0.037l0.093,0.035l0.093,0.035l0.094,0.034l0.096,0.033l0.096,0.031l0.098,0.031l0.098,0.031l0.1,0.029l0.101,0.028l0.102,0.027l0.103,0.026l0.104,0.026l0.105,0.024l0.107,0.023l0.108,0.022l0.109,0.022l0.111,0.02l0.112,0.019l0.113,0.018l0.115,0.017l0.116,0.016l0.117,0.014l0.119,0.014l0.121,0.012l0.122,0.011l0.123,0.01l0.126,0.008l0.126,0.008l0.129,0.006l0.129,0.004l0.132,0.004l0.133,0.002l0.136,0.001l0.136,-0.001l0.135,-0.002l0.133,-0.003l0.131,-0.005l0.13,-0.005l0.128,-0.007l0.126,-0.008l0.125,-0.01l0.123,-0.01l0.121,-0.012l0.12,-0.013l0.118,-0.013l0.116,-0.015l0.115,-0.016l0.114,-0.017l0.112,-0.018l0.11,-0.019l0.11,-0.021l0.107,-0.021l0.107,-0.022l0.105,-0.023l0.103,-0.024l0.103,-0.024l0.101,-0.026l0.099,-0.027l0.099,-0.027l0.098,-0.029l0.096,-0.029l0.095,-0.03l0.094,-0.031l0.093,-0.032l0.092,-0.033l0.091,-0.034l0.09,-0.034l0.089,-0.035l0.087,-0.036l0.088,-0.037l0.086,-0.038l0.085,-0.038l0.085,-0.04l0.083,-0.039l0.083,-0.041l0.083,-0.042l0.082,-0.043l0.08,-0.043l0.08,-0.044l0.08,-0.045l0.079,-0.046l0.078,-0.046l0.078,-0.048l0.077,-0.048l0.076,-0.049l0.077,-0.05l0.075,-0.05l0.076,-0.052l0.074,-0.052l0.074,-0.053l0.074,-0.054l0.074,-0.055l0.072,-0.055l0.073,-0.056l0.072,-0.058l0.072,-0.058l0.072,-0.059l0.071,-0.06l0.07,-0.06l0.071,-0.061l0.07,-0.063l0.07,-0.063l0.07,-0.064l0.069,-0.065l0.069,-0.065l0.069,-0.067l0.069,-0.067l0.068,-0.068l0.068,-0.069l0.068,-0.07l0.068,-0.07l0.067,-0.072l0.067,-0.072l0.068,-0.073l0.067,-0.074l0.066,-0.074l0.064,-0.073l0.136,-0.156l0.132,-0.157l0.131,-0.159l0.131,-0.162l0.13,-0.165l0.13,-0.168l0.13,-0.171l0.129,-0.173l0.13,-0.176l0.129,-0.179l0.129,-0.181l0.128,-0.183l0.129,-0.185l0.129,-0.188l0.129,-0.19l0.129,-0.19l0.261,-0.391l0.262,-0.396l0.264,-0.402l0.094,-0.133l0.101,-0.128l0.109,-0.121l0.117,-0.114l0.122,-0.107l0.129,-0.1l0.135,-0.091l0.14,-0.083l0.145,-0.075l0.149,-0.066l0.153,-0.056l0.156,-0.047l0.159,-0.038l0.16,-0.028l0.162,-0.019l0.163,-0.008l0.163,0.001Z" style="fill:#173865;"/></g></g><g><g><rect x="797.224" y="174.417" width="5.551" height="79.892" style="fill:#173865;"/><path d="M839.946,194.39l-39.946,19.972l0,-39.945l39.946,19.973Z" style="fill:#fff;"/><path d="M844.109,193.368l0,2.043l-45.711,22.856l-1.174,-0.726l0,-46.303l1.174,-0.726l45.711,22.856Zm-41.333,16.503l30.963,-15.481l-30.963,-15.482l0,30.963Z" style="fill:#173865;"/></g><g><g><path d="M777.23,163.864l0.093,0.008l0.092,0.013l0.092,0.017l0.091,0.023l0.089,0.027l0.087,0.032l0.086,0.037l0.084,0.042l0.081,0.045l0.079,0.051l0.075,0.054l0.073,0.059l0.07,0.062l0.066,0.066l0.062,0.069l0.058,0.073l0.055,0.076l0.05,0.079l0.046,0.081l0.041,0.083l0.037,0.086l0.032,0.088l0.028,0.089l0.022,0.09l0.018,0.092l0.013,0.093l0.007,0.093l0.003,0.093l0,13.037l-0.003,0.094l-0.007,0.093l-0.013,0.092l-0.018,0.092l-0.022,0.09l-0.028,0.089l-0.032,0.088l-0.037,0.086l-0.041,0.083l-0.046,0.082l-0.05,0.078l-0.055,0.076l-0.058,0.073l-0.062,0.069l-0.066,0.066l-0.07,0.062l-0.073,0.059l-0.075,0.054l-0.079,0.051l-0.081,0.046l-0.084,0.041l-0.086,0.037l-0.087,0.032l-0.089,0.027l-0.091,0.023l-0.092,0.018l-0.092,0.012l-0.093,0.008l-0.093,0.002l-0.094,-0.002l-0.093,-0.008l-0.092,-0.012l-0.092,-0.018l-0.09,-0.023l-0.09,-0.027l-0.087,-0.032l-0.086,-0.037l-0.083,-0.041l-0.082,-0.046l-0.078,-0.051l-0.076,-0.054l-0.073,-0.059l-0.069,-0.062l-0.066,-0.066l-0.063,-0.069l-0.058,-0.073l-0.054,-0.076l-0.051,-0.078l-0.046,-0.082l-0.041,-0.083l-0.037,-0.086l-0.032,-0.088l-0.028,-0.089l-0.022,-0.09l-0.018,-0.092l-0.012,-0.092l-0.008,-0.093l-0.002,-0.094l0,-13.037l0.002,-0.093l0.008,-0.093l0.012,-0.093l0.018,-0.092l0.022,-0.09l0.028,-0.089l0.032,-0.088l0.037,-0.086l0.041,-0.083l0.046,-0.081l0.051,-0.079l0.054,-0.076l0.058,-0.073l0.063,-0.069l0.066,-0.066l0.069,-0.062l0.073,-0.059l0.076,-0.054l0.078,-0.051l0.082,-0.045l0.083,-0.042l0.086,-0.037l0.087,-0.032l0.09,-0.027l0.09,-0.023l0.092,-0.017l0.092,-0.013l0.093,-0.008l0.094,-0.002l0.093,0.002Z" style="fill:#adc7ec;"/><path d="M783.749,170.383l0.093,0.008l0.092,0.012l0.092,0.018l0.09,0.022l0.089,0.028l0.088,0.032l0.086,0.037l0.083,0.041l0.082,0.046l0.078,0.05l0.076,0.055l0.073,0.058l0.069,0.063l0.066,0.066l0.063,0.069l0.058,0.073l0.054,0.076l0.051,0.078l0.046,0.081l0.041,0.084l0.037,0.086l0.032,0.087l0.028,0.09l0.022,0.09l0.018,0.092l0.012,0.092l0.008,0.093l0.002,0.094l-0.002,0.093l-0.008,0.093l-0.012,0.092l-0.018,0.092l-0.022,0.091l-0.028,0.089l-0.032,0.087l-0.037,0.086l-0.041,0.084l-0.046,0.081l-0.051,0.078l-0.054,0.076l-0.058,0.073l-0.063,0.069l-0.066,0.066l-0.069,0.063l-0.073,0.058l-0.076,0.055l-0.078,0.05l-0.082,0.046l-0.083,0.041l-0.086,0.037l-0.088,0.032l-0.089,0.028l-0.09,0.022l-0.092,0.018l-0.092,0.012l-0.093,0.008l-0.094,0.003l-13.037,0l-0.093,-0.003l-0.093,-0.008l-0.093,-0.012l-0.091,-0.018l-0.091,-0.022l-0.089,-0.028l-0.088,-0.032l-0.086,-0.037l-0.083,-0.041l-0.081,-0.046l-0.079,-0.05l-0.076,-0.055l-0.073,-0.058l-0.069,-0.063l-0.066,-0.066l-0.062,-0.069l-0.059,-0.073l-0.054,-0.076l-0.05,-0.078l-0.046,-0.081l-0.042,-0.084l-0.037,-0.086l-0.032,-0.087l-0.027,-0.089l-0.023,-0.091l-0.017,-0.092l-0.013,-0.092l-0.008,-0.093l-0.002,-0.093l0.002,-0.094l0.008,-0.093l0.013,-0.092l0.017,-0.092l0.023,-0.09l0.027,-0.09l0.032,-0.087l0.037,-0.086l0.042,-0.084l0.046,-0.081l0.05,-0.078l0.054,-0.076l0.059,-0.073l0.062,-0.069l0.066,-0.066l0.069,-0.063l0.073,-0.058l0.076,-0.055l0.079,-0.05l0.081,-0.046l0.083,-0.041l0.086,-0.037l0.088,-0.032l0.089,-0.028l0.091,-0.022l0.091,-0.018l0.093,-0.012l0.093,-0.008l0.093,-0.002l13.037,0l0.094,0.002Z" style="fill:#adc7ec;"/></g><g><path d="M813.147,150.234l0,8.937" style="fill:none;stroke:#adc7ec;stroke-width:2.36px;"/><path d="M817.616,154.703l-8.937,0" style="fill:none;stroke:#adc7ec;stroke-width:2.36px;"/></g><g><path d="M855.028,177.013l0.087,0.007l0.086,0.012l0.086,0.016l0.085,0.021l0.083,0.026l0.082,0.03l0.08,0.034l0.079,0.039l0.076,0.043l0.073,0.047l0.071,0.051l0.068,0.055l0.065,0.058l0.062,0.062l0.058,0.065l0.055,0.068l0.051,0.071l0.047,0.073l0.043,0.076l0.038,0.078l0.035,0.081l0.03,0.082l0.026,0.083l0.021,0.085l0.016,0.085l0.012,0.087l0.007,0.087l0.002,0.087l0,12.197l-0.002,0.087l-0.007,0.087l-0.012,0.086l-0.016,0.086l-0.021,0.085l-0.026,0.083l-0.03,0.082l-0.035,0.08l-0.038,0.079l-0.043,0.076l-0.047,0.073l-0.051,0.071l-0.055,0.068l-0.058,0.065l-0.062,0.062l-0.065,0.058l-0.068,0.055l-0.071,0.051l-0.073,0.047l-0.076,0.043l-0.079,0.038l-0.08,0.035l-0.082,0.03l-0.083,0.026l-0.085,0.021l-0.086,0.016l-0.086,0.012l-0.087,0.007l-0.087,0.002l-0.088,-0.002l-0.087,-0.007l-0.086,-0.012l-0.086,-0.016l-0.085,-0.021l-0.083,-0.026l-0.082,-0.03l-0.08,-0.035l-0.078,-0.038l-0.076,-0.043l-0.074,-0.047l-0.071,-0.051l-0.068,-0.055l-0.065,-0.058l-0.062,-0.062l-0.058,-0.065l-0.055,-0.068l-0.051,-0.071l-0.047,-0.073l-0.043,-0.076l-0.038,-0.079l-0.035,-0.08l-0.03,-0.082l-0.026,-0.083l-0.021,-0.085l-0.016,-0.086l-0.012,-0.086l-0.007,-0.087l-0.002,-0.087l0,-12.197l0.002,-0.087l0.007,-0.087l0.012,-0.087l0.016,-0.085l0.021,-0.085l0.026,-0.083l0.03,-0.082l0.035,-0.081l0.038,-0.078l0.043,-0.076l0.047,-0.073l0.051,-0.071l0.055,-0.068l0.058,-0.065l0.062,-0.062l0.065,-0.058l0.068,-0.055l0.071,-0.051l0.074,-0.047l0.076,-0.043l0.078,-0.039l0.08,-0.034l0.082,-0.03l0.083,-0.026l0.085,-0.021l0.086,-0.016l0.086,-0.012l0.087,-0.007l0.088,-0.003l0.087,0.003Z" style="fill:#adc7ec;"/><path d="M861.126,183.111l0.087,0.007l0.086,0.012l0.086,0.016l0.085,0.021l0.083,0.026l0.082,0.03l0.08,0.035l0.079,0.038l0.076,0.043l0.073,0.047l0.071,0.051l0.068,0.055l0.065,0.058l0.062,0.062l0.058,0.065l0.055,0.068l0.051,0.071l0.047,0.073l0.043,0.076l0.039,0.079l0.034,0.08l0.03,0.082l0.026,0.083l0.021,0.085l0.016,0.086l0.012,0.086l0.007,0.087l0.003,0.087l-0.003,0.088l-0.007,0.087l-0.012,0.086l-0.016,0.086l-0.021,0.085l-0.026,0.083l-0.03,0.082l-0.034,0.08l-0.039,0.078l-0.043,0.076l-0.047,0.074l-0.051,0.071l-0.055,0.068l-0.058,0.065l-0.062,0.062l-0.065,0.058l-0.068,0.055l-0.071,0.05l-0.073,0.048l-0.076,0.042l-0.079,0.039l-0.08,0.035l-0.082,0.03l-0.083,0.025l-0.085,0.022l-0.086,0.016l-0.086,0.012l-0.087,0.007l-0.087,0.002l-12.197,0l-0.087,-0.002l-0.087,-0.007l-0.086,-0.012l-0.086,-0.016l-0.085,-0.022l-0.083,-0.025l-0.082,-0.03l-0.08,-0.035l-0.079,-0.039l-0.076,-0.042l-0.073,-0.048l-0.071,-0.05l-0.068,-0.055l-0.065,-0.058l-0.062,-0.062l-0.058,-0.065l-0.055,-0.068l-0.051,-0.071l-0.047,-0.074l-0.043,-0.076l-0.038,-0.078l-0.035,-0.08l-0.03,-0.082l-0.026,-0.083l-0.021,-0.085l-0.016,-0.086l-0.012,-0.086l-0.007,-0.087l-0.002,-0.088l0.002,-0.087l0.007,-0.087l0.012,-0.086l0.016,-0.086l0.021,-0.085l0.026,-0.083l0.03,-0.082l0.035,-0.08l0.038,-0.079l0.043,-0.076l0.047,-0.073l0.051,-0.071l0.055,-0.068l0.058,-0.065l0.062,-0.062l0.065,-0.058l0.068,-0.055l0.071,-0.051l0.073,-0.047l0.076,-0.043l0.079,-0.038l0.08,-0.035l0.082,-0.03l0.083,-0.026l0.085,-0.021l0.086,-0.016l0.086,-0.012l0.087,-0.007l0.087,-0.002l12.197,0l0.087,0.002Z" style="fill:#adc7ec;"/></g></g></g></g></g><text x="317.888px" y="641.714px" style="font-family:'Montserrat-SemiBold', 'Montserrat';font-weight:600;font-size:72px;fill:#173865;">E<tspan x="376.928px 446.048px 500.192px 563.624px 622.664px 685.736px 749.168px 808.208px 877.328px 936.368px 1003.98px 1067.41px 1123.5px 1192.62px 1226.38px " y="641.714px 641.714px 641.714px 641.714px 641.714px 641.714px 641.714px 641.714px 641.714px 641.714px 641.714px 641.714px 641.714px 641.714px 641.714px ">NTREPRENEURSHIP</tspan></text><text x="565.19px" y="711.208px" style="font-family:'Montserrat-SemiBold', 'Montserrat';font-weight:600;font-size:60px;fill:#173865;">C<tspan x="617.81px 677.33px 722.27px 767.21px 816.41px 869.03px 914.15px 942.29px 995.03px " y="711.208px 711.208px 711.208px 711.208px 711.208px 711.208px 711.208px 711.208px 711.208px ">OLLECTIVE</tspan></text><text x="743.62px" y="781.606px" style="font-family:'Montserrat-SemiBold', 'Montserrat';font-weight:600;font-size:19.561px;fill:#173865;">E<tspan x="759.66px 774.898px 789.608px 797.315px 805.648px 819.966px 836.065px 846.452px " y="781.606px 781.606px 781.606px 781.606px 781.606px 781.606px 781.606px 781.606px ">ST. 2018</tspan></text></svg>