<svg width="240" height="240" viewBox="0 0 240 240" fill="none" xmlns="http://www.w3.org/2000/svg">
<path d="M119.597 239.804C175.94 239.804 221.616 194.129 221.616 137.785C221.616 81.442 175.94 35.7666 119.597 35.7666C63.2535 35.7666 17.5781 81.442 17.5781 137.785C17.5781 194.129 63.2535 239.804 119.597 239.804Z" fill="#ADC7EC"/>
<path d="M80.2999 160.461H1.70898V208.085H80.2999V160.461Z" fill="white"/>
<path fill-rule="evenodd" clip-rule="evenodd" d="M82.0175 209.802H0V158.752H82.0175V209.802ZM3.42625 162.179V206.376H78.5909V162.179H3.42625V162.179Z" fill="#173865"/>
<path d="M158.913 160.461H80.3223V208.085H158.913V160.461Z" fill="white"/>
<path fill-rule="evenodd" clip-rule="evenodd" d="M160.631 209.802H78.6133V158.752H160.631V209.802ZM82.0399 162.179V206.376H157.204V162.179H82.0399V162.179Z" fill="#173865"/>
<path d="M237.465 160.461H158.875V208.085H237.465V160.461Z" fill="white"/>
<path fill-rule="evenodd" clip-rule="evenodd" d="M239.183 209.802H157.166V158.752H239.183V209.802ZM160.592 162.179V206.376H235.757V162.179H160.592Z" fill="#173865"/>
<path d="M198.159 112.854H119.568V160.477H198.159V112.854Z" fill="white"/>
<path fill-rule="evenodd" clip-rule="evenodd" d="M199.876 162.194H117.859V111.145H199.876V162.194ZM121.285 114.572V158.768H196.45V114.572H121.285Z" fill="#173865"/>
<path d="M119.607 112.854H41.0156V160.477H119.607V112.854Z" fill="white"/>
<path fill-rule="evenodd" clip-rule="evenodd" d="M121.324 162.194H39.3066V111.145H121.324V162.194ZM42.7332 114.572V158.768H117.898V114.572H42.7332Z" fill="#173865"/>
<path d="M158.913 65.2466H80.3223V112.87H158.913V65.2466Z" fill="white"/>
<path fill-rule="evenodd" clip-rule="evenodd" d="M160.631 114.587H78.6133V63.5376H160.631V114.587ZM82.0399 66.9638V111.16H157.204V66.9638H82.0399V66.9638Z" fill="#173865"/>
<path fill-rule="evenodd" clip-rule="evenodd" d="M106.571 78.9798L106.661 78.9817L106.751 78.9845L106.84 78.9886L106.929 78.9936L107.018 78.9998L107.106 79.007L107.194 79.0154L107.282 79.0248L107.37 79.0354L107.457 79.0473L107.544 79.0601L107.631 79.0739L107.717 79.0886L107.804 79.1045L107.889 79.1217L107.974 79.1395L108.059 79.1586L108.144 79.1789L108.228 79.1998L108.312 79.222L108.395 79.2451L108.478 79.2692L108.56 79.2945L108.643 79.3204L108.724 79.3476L108.805 79.3757L108.886 79.4045L108.966 79.4345L109.046 79.4654L109.125 79.4973L109.204 79.5301L109.282 79.5639L109.36 79.5986L109.437 79.6339L109.514 79.6704L109.59 79.7076L109.666 79.7461L109.741 79.7851L109.816 79.8251L109.89 79.8661L109.964 79.9076L110.037 79.9501L110.109 79.9936L110.181 80.0379L110.252 80.0829L110.323 80.1289L110.393 80.1754L110.462 80.2229L110.531 80.2714L110.599 80.3204L110.667 80.3704L110.734 80.4211L110.8 80.4726L110.865 80.5248L110.93 80.5779L110.995 80.6317L111.059 80.6861L111.122 80.7414L111.184 80.7976L111.246 80.8542L111.306 80.9117L111.367 80.9698L111.426 81.0289L111.485 81.0883L111.544 81.1486L111.601 81.2095L111.658 81.2714L111.714 81.3336L111.769 81.3967L111.824 81.4604L111.877 81.5248L111.93 81.5898L111.983 81.6554L112.034 81.7217L112.085 81.7886L112.134 81.8561L112.184 81.9245L112.232 81.9933L112.279 82.0626L112.326 82.1326L112.372 82.2033L112.417 82.2745L112.462 82.3464L112.505 82.4186L112.547 82.4917L112.589 82.5651L112.63 82.6392L112.67 82.7139L112.709 82.7889L112.747 82.8645L112.785 82.9411L112.821 83.018L112.857 83.0951L112.891 83.173L112.925 83.2511L112.958 83.3298L112.989 83.4092L113.02 83.4892L113.05 83.5692L113.079 83.6498L113.108 83.7311L113.134 83.8126L113.161 83.8948L113.186 83.9773L113.21 84.0602L113.233 84.1436L113.255 84.2273L113.276 84.3114L113.296 84.3958L113.315 84.4808L113.334 84.5661L113.35 84.6517L113.366 84.7377L113.381 84.8242L113.395 84.9111L113.408 84.998L113.419 85.0852L113.43 85.1727L113.44 85.2608L113.448 85.3492L113.455 85.4377L113.462 85.5261L113.467 85.6152L113.471 85.7045L113.474 85.7939L113.475 85.8839L113.476 85.9633L113.474 86.0467L113.469 86.1298L113.459 86.2127L113.444 86.2948L113.427 86.3761L113.404 86.4564L113.379 86.5358L113.349 86.6136L113.315 86.6895L113.277 86.7642L113.236 86.8367L113.191 86.907L113.143 86.9749L113.091 87.0405L113.037 87.1033L112.979 87.1633L112.918 87.2205L112.854 87.2742L112.788 87.3252L112.72 87.3724L112.649 87.4164L112.576 87.4567L112.501 87.4933L112.424 87.5264L112.346 87.5552L112.267 87.5805L112.186 87.6014L112.104 87.6186L112.022 87.6314L111.939 87.6402L111.856 87.6448L111.773 87.6455L111.689 87.6417L111.606 87.6339L111.524 87.622L111.442 87.6061L111.361 87.5861L111.281 87.562L111.203 87.5339L111.126 87.502L111.05 87.4664L110.977 87.427L110.905 87.3839L110.836 87.3374L110.769 87.2874L110.705 87.2342L110.644 87.178L110.585 87.1186L110.53 87.0564L110.477 86.9917L110.428 86.9242L110.383 86.8545L110.34 86.7827L110.302 86.7086L110.267 86.633L110.236 86.5555L110.209 86.4767L110.186 86.3964L110.167 86.3155L110.152 86.2333L110.141 86.1508L110.134 86.0677L110.132 85.9842L110.131 85.9261L110.13 85.8789L110.129 85.8317L110.127 85.7848L110.124 85.7383L110.121 85.6914L110.117 85.6452L110.113 85.5989L110.108 85.5533L110.102 85.5073L110.096 85.4617L110.089 85.4164L110.082 85.3714L110.075 85.3264L110.066 85.2817L110.058 85.237L110.048 85.193L110.038 85.1489L110.028 85.1052L110.017 85.0611L110.005 85.0177L109.994 84.9745L109.981 84.9314L109.968 84.8886L109.954 84.8464L109.94 84.8039L109.926 84.7617L109.911 84.7198L109.895 84.678L109.879 84.6367L109.863 84.5958L109.845 84.5545L109.828 84.5139L109.81 84.4733L109.791 84.4333L109.773 84.3933L109.753 84.3539L109.733 84.3142L109.713 84.2748L109.692 84.2361L109.671 84.1973L109.649 84.1592L109.627 84.1211L109.604 84.0833L109.581 84.0458L109.557 84.0086L109.534 83.9717L109.509 83.9351L109.484 83.8986L109.459 83.8626L109.433 83.827L109.407 83.7917L109.38 83.7567L109.354 83.722L109.326 83.6873L109.298 83.6533L109.27 83.6195L109.242 83.5864L109.213 83.5533L109.183 83.5205L109.154 83.4883L109.123 83.4564L109.093 83.4245L109.062 83.3933L109.031 83.3623L108.999 83.332L108.967 83.3017L108.934 83.272L108.902 83.2426L108.869 83.2136L108.835 83.1851L108.802 83.157L108.768 83.1292L108.733 83.1017L108.699 83.0748L108.664 83.0483L108.628 83.022L108.592 82.9964L108.556 82.9711L108.52 82.9464L108.484 82.9217L108.447 82.8976L108.409 82.8742L108.372 82.8511L108.334 82.8286L108.296 82.8061L108.258 82.7845L108.219 82.7633L108.18 82.7423L108.141 82.722L108.102 82.702L108.062 82.6826L108.022 82.6636L107.982 82.6451L107.941 82.6273L107.9 82.6095L107.86 82.5926L107.819 82.5761L107.777 82.5601L107.735 82.5445L107.694 82.5295L107.651 82.5148L107.609 82.5008L107.566 82.4873L107.524 82.4742L107.481 82.4617L107.437 82.4498L107.394 82.4383L107.35 82.4273L107.306 82.417L107.262 82.407L107.218 82.3976L107.174 82.3889L107.129 82.3805L107.084 82.3726L107.039 82.3655L106.993 82.3589L106.948 82.353L106.902 82.3473L106.856 82.3423L106.81 82.3379L106.764 82.3342L106.717 82.3308L106.67 82.3283L106.624 82.3261L106.576 82.3245L106.529 82.3236L106.481 82.3233L106.434 82.3236L106.387 82.3245L106.339 82.3261L106.292 82.3283L106.246 82.3308L106.199 82.3342L106.153 82.3379L106.107 82.3423L106.061 82.3473L106.015 82.353L105.969 82.3589L105.924 82.3655L105.879 82.3726L105.834 82.3805L105.79 82.3889L105.745 82.3976L105.7 82.407L105.656 82.4167L105.613 82.4273L105.569 82.4383L105.525 82.4498L105.482 82.4617L105.439 82.4742L105.396 82.4873L105.354 82.5008L105.312 82.5148L105.27 82.5295L105.228 82.5445L105.186 82.5601L105.144 82.5761L105.103 82.5926L105.062 82.6095L105.022 82.6273L104.981 82.6451L104.941 82.6636L104.901 82.6826L104.861 82.702L104.822 82.722L104.783 82.7423L104.744 82.7633L104.705 82.7845L104.667 82.8064L104.629 82.8286L104.591 82.8511L104.554 82.8742L104.516 82.8976L104.479 82.9217L104.443 82.9461L104.406 82.9711L104.37 82.9964L104.335 83.022L104.3 83.0483L104.264 83.0748L104.23 83.1017L104.195 83.1289L104.161 83.1567L104.127 83.1851L104.094 83.2136L104.061 83.2426L104.028 83.272L103.996 83.3017L103.964 83.3317L103.932 83.3623L103.901 83.3933L103.87 83.4245L103.839 83.4561L103.81 83.4883L103.78 83.5205L103.75 83.5533L103.721 83.5861L103.693 83.6195L103.664 83.6536L103.637 83.6876L103.609 83.722L103.583 83.7564L103.556 83.7917L103.53 83.827L103.504 83.8626L103.479 83.8989L103.454 83.9348L103.43 83.9717L103.405 84.0086L103.382 84.0458L103.359 84.0833L103.336 84.1211L103.314 84.1592L103.292 84.1973L103.271 84.2361L103.25 84.2748L103.23 84.3142L103.21 84.3536L103.19 84.3936L103.171 84.4333L103.153 84.4733L103.135 84.5139L103.117 84.5545L103.1 84.5958L103.084 84.6364L103.068 84.678L103.052 84.7198L103.037 84.7617L103.023 84.8036L103.009 84.8461L102.995 84.8889L102.982 84.9317L102.969 84.9745L102.958 85.0177L102.946 85.0611L102.935 85.1048L102.924 85.1489L102.915 85.193L102.905 85.2373L102.896 85.2817L102.888 85.3264L102.88 85.3714L102.873 85.4164L102.867 85.4617L102.86 85.5073L102.855 85.553L102.85 85.5989L102.846 85.6452L102.842 85.6917L102.839 85.738L102.836 85.7848L102.834 85.8317L102.832 85.8789L102.831 85.9264L102.831 85.9842L102.829 86.0677L102.822 86.1508L102.811 86.2333L102.796 86.3155L102.777 86.3964L102.754 86.4767L102.727 86.5555L102.696 86.633L102.661 86.7086L102.622 86.7827L102.58 86.8545L102.534 86.9242L102.485 86.9917L102.433 87.0564L102.378 87.1186L102.319 87.178L102.258 87.2342L102.193 87.2874L102.127 87.3374L102.057 87.3839L101.986 87.427L101.913 87.4664L101.837 87.502L101.76 87.5339L101.682 87.562L101.602 87.5861L101.521 87.6061L101.439 87.622L101.357 87.6339L101.274 87.6417L101.19 87.6455L101.107 87.6448L101.024 87.6402L100.941 87.6314L100.859 87.6186L100.777 87.6014L100.696 87.5805L100.617 87.5552L100.539 87.5264L100.462 87.4933L100.387 87.4567L100.314 87.4164L100.243 87.3724L100.175 87.3252L100.109 87.2742L100.045 87.2205L99.9842 87.1633L99.9264 87.1033L99.8717 87.0405L99.8201 86.9749L99.7717 86.907L99.727 86.8367L99.6857 86.7642L99.6482 86.6895L99.6145 86.6136L99.5845 86.5358L99.5583 86.4564L99.5364 86.3761L99.5182 86.2948L99.5042 86.2127L99.4945 86.1298L99.4889 86.0467L99.4873 85.9633L99.4876 85.8836L99.4895 85.7939L99.4923 85.7045L99.4961 85.6152L99.5014 85.5264L99.5076 85.4373L99.5148 85.3489L99.5233 85.2608L99.5326 85.173L99.5432 85.0852L99.5551 84.998L99.5676 84.9108L99.5817 84.8242L99.5964 84.738L99.6123 84.6517L99.6295 84.5661L99.6473 84.4808L99.6664 84.3961L99.6864 84.3114L99.7076 84.2273L99.7298 84.1436L99.7529 84.0602L99.777 83.9773L99.8023 83.8948L99.8282 83.8126L99.8554 83.7311L99.8833 83.6498L99.9123 83.5692L99.9423 83.4892L99.9733 83.4095L100.005 83.3298L100.038 83.2511L100.072 83.173L100.106 83.0951L100.142 83.0176L100.178 82.9408L100.215 82.8648L100.254 82.7892L100.293 82.7139L100.333 82.6392L100.374 82.5651L100.415 82.4917L100.458 82.4186L100.501 82.3461L100.546 82.2745L100.591 82.2033L100.637 82.1326L100.683 82.0626L100.731 81.9929L100.779 81.9245L100.828 81.8561L100.878 81.7886L100.929 81.7217L100.98 81.6554L101.033 81.5895L101.086 81.5245L101.14 81.4604L101.194 81.3967L101.249 81.3336L101.305 81.2711L101.362 81.2095L101.42 81.1486L101.478 81.0883L101.536 81.0286L101.596 80.9698L101.656 80.9117L101.717 80.8542L101.779 80.7973L101.841 80.7414L101.905 80.6861L101.968 80.6317L102.032 80.5779L102.097 80.5248L102.163 80.4726L102.229 80.4211L102.296 80.3704L102.364 80.3204L102.432 80.2714L102.501 80.2233L102.57 80.1754L102.64 80.1289L102.711 80.0829L102.782 80.0379L102.854 79.9936L102.926 79.9501L102.999 79.9076L103.073 79.8661L103.147 79.8251L103.222 79.7851L103.297 79.7461L103.373 79.7076L103.449 79.6704L103.525 79.6342L103.603 79.5986L103.681 79.5639L103.759 79.5301L103.838 79.4973L103.917 79.4654L103.997 79.4345L104.077 79.4045L104.158 79.3757L104.239 79.3476L104.32 79.3204L104.403 79.2945L104.485 79.2692L104.568 79.2451L104.651 79.222L104.735 79.1998L104.819 79.1789L104.904 79.1586L104.989 79.1395L105.074 79.1217L105.159 79.1045L105.245 79.0886L105.332 79.0739L105.419 79.0601L105.505 79.0473L105.593 79.0354L105.68 79.0248L105.769 79.0154L105.857 79.007L105.945 78.9998L106.034 78.9936L106.123 78.9886L106.212 78.9845L106.302 78.9817L106.392 78.9798L106.481 78.9795L106.571 78.9798V78.9798Z" fill="#173865"/>
<path fill-rule="evenodd" clip-rule="evenodd" d="M132.877 78.9798L132.967 78.9817L133.057 78.9845L133.146 78.9886L133.235 78.9936L133.324 78.9998L133.412 79.007L133.501 79.0154L133.589 79.0248L133.676 79.0354L133.764 79.0473L133.851 79.0601L133.937 79.0739L134.024 79.0886L134.11 79.1045L134.195 79.1217L134.281 79.1395L134.366 79.1586L134.45 79.1789L134.534 79.1998L134.618 79.222L134.701 79.2451L134.784 79.2692L134.867 79.2945L134.949 79.3204L135.03 79.3476L135.112 79.3757L135.192 79.4045L135.272 79.4345L135.352 79.4654L135.432 79.4973L135.51 79.5301L135.589 79.5639L135.666 79.5986L135.744 79.6339L135.82 79.6704L135.897 79.7076L135.972 79.7461L136.048 79.7851L136.122 79.8251L136.196 79.8661L136.27 79.9076L136.343 79.9501L136.415 79.9936L136.487 80.0379L136.558 80.0829L136.629 80.1289L136.699 80.1754L136.768 80.2229L136.837 80.2714L136.905 80.3208L136.973 80.3704L137.04 80.4211L137.106 80.4726L137.172 80.5248L137.237 80.5779L137.301 80.6317L137.365 80.6861L137.428 80.7414L137.49 80.7976L137.552 80.8542L137.613 80.9117L137.673 80.9698L137.733 81.0289L137.792 81.0883L137.85 81.1486L137.907 81.2095L137.964 81.2714L138.02 81.3339L138.075 81.3967L138.13 81.4601L138.184 81.5248L138.237 81.5898L138.289 81.6554L138.34 81.7217L138.391 81.7886L138.441 81.8561L138.49 81.9245L138.538 81.9933L138.586 82.0626L138.632 82.1326L138.678 82.2033L138.724 82.2745L138.768 82.3464L138.811 82.4186L138.854 82.4917L138.896 82.5651L138.936 82.6392L138.976 82.7139L139.015 82.7889L139.053 82.8645L139.091 82.9411L139.127 83.018L139.163 83.0951L139.197 83.173L139.231 83.2511L139.264 83.3298L139.296 83.4092L139.327 83.4892L139.357 83.5692L139.386 83.6498L139.414 83.7311L139.441 83.8126L139.467 83.8948L139.492 83.9773L139.516 84.0602L139.539 84.1436L139.562 84.2273L139.582 84.3114L139.603 84.3958L139.622 84.4808L139.64 84.5661L139.657 84.6517L139.673 84.738L139.687 84.8242L139.702 84.9108L139.714 84.998L139.726 85.0852L139.737 85.1727L139.746 85.2608L139.754 85.3492L139.762 85.4377L139.768 85.5264L139.773 85.6152L139.777 85.7042L139.78 85.7939L139.782 85.8839L139.782 85.9633L139.78 86.0467L139.775 86.1298L139.765 86.2127L139.751 86.2948L139.733 86.3761L139.711 86.4564L139.685 86.5358L139.655 86.6136L139.621 86.6895L139.583 86.7642L139.542 86.8367L139.497 86.907L139.449 86.9749L139.397 87.0405L139.343 87.1033L139.285 87.1633L139.224 87.2205L139.161 87.2742L139.095 87.3252L139.026 87.3724L138.955 87.4164L138.882 87.4567L138.807 87.4933L138.731 87.5264L138.652 87.5552L138.573 87.5805L138.492 87.6014L138.411 87.6186L138.328 87.6314L138.246 87.6402L138.162 87.6448L138.079 87.6455L137.996 87.6417L137.912 87.6339L137.83 87.622L137.748 87.6061L137.667 87.5861L137.587 87.562L137.509 87.5339L137.432 87.502L137.357 87.4664L137.283 87.427L137.212 87.3839L137.142 87.3374L137.076 87.2874L137.012 87.2342L136.95 87.178L136.892 87.1186L136.836 87.0564L136.784 86.9917L136.735 86.9242L136.689 86.8545L136.647 86.7827L136.608 86.7086L136.573 86.633L136.542 86.5555L136.516 86.4767L136.492 86.3964L136.473 86.3155L136.458 86.2333L136.447 86.1508L136.441 86.0677L136.438 85.9842L136.438 85.9261L136.437 85.8789L136.435 85.832L136.433 85.7848L136.431 85.738L136.427 85.6914L136.423 85.6452L136.419 85.5989L136.414 85.5533L136.409 85.5073L136.402 85.4617L136.396 85.4164L136.389 85.3714L136.381 85.3264L136.373 85.2817L136.364 85.237L136.354 85.193L136.345 85.1489L136.334 85.1052L136.323 85.0611L136.312 85.0177L136.3 84.9745L136.287 84.9317L136.274 84.8886L136.261 84.8461L136.247 84.8039L136.232 84.7617L136.217 84.7198L136.201 84.678L136.185 84.6367L136.169 84.5958L136.152 84.5545L136.134 84.5139L136.116 84.4733L136.098 84.4333L136.079 84.3933L136.059 84.3539L136.039 84.3142L136.019 84.2748L135.998 84.2361L135.977 84.1973L135.955 84.1592L135.933 84.1211L135.91 84.0833L135.887 84.0458L135.864 84.0086L135.84 83.9717L135.815 83.9351L135.79 83.8986L135.765 83.8626L135.739 83.827L135.713 83.7917L135.687 83.7567L135.66 83.722L135.632 83.6873L135.604 83.6533L135.577 83.6198L135.548 83.5864L135.519 83.553L135.489 83.5205L135.46 83.4883L135.43 83.4564L135.399 83.4245L135.368 83.3933L135.337 83.3623L135.305 83.332L135.273 83.3017L135.241 83.272L135.208 83.2426L135.175 83.2136L135.142 83.1851L135.108 83.157L135.074 83.1292L135.04 83.1017L135.005 83.0748L134.97 83.0483L134.934 83.022L134.899 82.9964L134.863 82.9711L134.827 82.9464L134.79 82.9217L134.753 82.8976L134.716 82.8742L134.678 82.8511L134.64 82.8286L134.602 82.8061L134.564 82.7845L134.525 82.7633L134.486 82.7423L134.447 82.722L134.408 82.702L134.368 82.6826L134.328 82.6636L134.288 82.6451L134.247 82.6273L134.207 82.6095L134.166 82.5926L134.125 82.5761L134.083 82.5601L134.042 82.5445L134 82.5295L133.957 82.5148L133.915 82.5008L133.873 82.4873L133.83 82.4742L133.787 82.4617L133.743 82.4498L133.7 82.4383L133.657 82.4273L133.613 82.417L133.569 82.407L133.524 82.3976L133.48 82.3889L133.435 82.3805L133.39 82.3726L133.345 82.3655L133.3 82.3589L133.254 82.353L133.208 82.3473L133.162 82.3423L133.116 82.3379L133.07 82.3342L133.023 82.3308L132.977 82.3283L132.93 82.3261L132.883 82.3245L132.835 82.3236L132.788 82.3233L132.74 82.3236L132.693 82.3245L132.646 82.3261L132.599 82.3283L132.552 82.3308L132.506 82.3342L132.459 82.3379L132.413 82.3423L132.367 82.3473L132.321 82.353L132.276 82.3589L132.23 82.3655L132.185 82.3726L132.14 82.3805L132.096 82.3889L132.051 82.3976L132.007 82.407L131.963 82.4167L131.919 82.4273L131.875 82.4383L131.832 82.4498L131.788 82.4617L131.746 82.4742L131.703 82.4873L131.66 82.5008L131.618 82.5148L131.576 82.5295L131.534 82.5445L131.492 82.5601L131.451 82.5761L131.41 82.5926L131.369 82.6095L131.328 82.6273L131.288 82.6451L131.247 82.6636L131.207 82.6826L131.167 82.702L131.128 82.722L131.089 82.7423L131.05 82.7633L131.012 82.7845L130.973 82.8064L130.935 82.8286L130.897 82.8511L130.86 82.8742L130.822 82.8976L130.786 82.9217L130.749 82.9461L130.713 82.9711L130.677 82.9964L130.641 83.022L130.606 83.0483L130.571 83.0748L130.536 83.1017L130.502 83.1289L130.467 83.1567L130.434 83.1851L130.4 83.2136L130.367 83.2426L130.334 83.272L130.302 83.3017L130.27 83.3317L130.238 83.3623L130.207 83.3933L130.177 83.4245L130.146 83.4561L130.116 83.4883L130.086 83.5205L130.057 83.5533L130.028 83.5861L129.999 83.6195L129.971 83.6536L129.943 83.6876L129.916 83.722L129.889 83.7564L129.862 83.7917L129.836 83.827L129.81 83.8626L129.785 83.8986L129.76 83.9348L129.736 83.9717L129.712 84.0086L129.688 84.0458L129.665 84.0833L129.642 84.1211L129.62 84.1592L129.598 84.1973L129.577 84.2361L129.556 84.2748L129.536 84.3142L129.516 84.3536L129.497 84.3933L129.478 84.4333L129.459 84.4733L129.441 84.5139L129.424 84.5545L129.407 84.5958L129.39 84.6367L129.374 84.678L129.358 84.7198L129.343 84.7617L129.329 84.8036L129.315 84.8461L129.301 84.8889L129.288 84.9317L129.276 84.9745L129.264 85.0177L129.252 85.0611L129.241 85.1052L129.231 85.1489L129.221 85.193L129.212 85.2373L129.203 85.2817L129.194 85.3264L129.187 85.3714L129.18 85.4164L129.173 85.4617L129.167 85.5073L129.161 85.553L129.156 85.5989L129.152 85.6452L129.148 85.6917L129.145 85.738L129.142 85.7848L129.14 85.8317L129.139 85.8789L129.138 85.9264L129.137 85.9842L129.135 86.0677L129.128 86.1508L129.117 86.2333L129.102 86.3155L129.083 86.3964L129.06 86.4767L129.033 86.5555L129.002 86.633L128.967 86.7086L128.929 86.7827L128.887 86.8545L128.841 86.9242L128.792 86.9917L128.739 87.0564L128.684 87.1186L128.625 87.178L128.564 87.2342L128.5 87.2874L128.433 87.3374L128.364 87.3839L128.292 87.427L128.219 87.4664L128.143 87.502L128.067 87.5339L127.988 87.562L127.908 87.5861L127.827 87.6061L127.745 87.622L127.663 87.6339L127.58 87.6417L127.497 87.6455L127.413 87.6448L127.33 87.6402L127.247 87.6314L127.165 87.6186L127.083 87.6014L127.003 87.5805L126.923 87.5552L126.845 87.5264L126.768 87.4933L126.693 87.4567L126.62 87.4164L126.549 87.3724L126.481 87.3252L126.415 87.2742L126.351 87.2205L126.29 87.1633L126.233 87.1033L126.178 87.0405L126.126 86.9749L126.078 86.907L126.033 86.8367L125.992 86.7642L125.954 86.6895L125.921 86.6136L125.891 86.5358L125.865 86.4564L125.843 86.3761L125.825 86.2948L125.811 86.2127L125.801 86.1298L125.795 86.0467L125.793 85.9633L125.794 85.8836L125.796 85.7939L125.798 85.7045L125.803 85.6152L125.808 85.5264L125.814 85.4373L125.821 85.3489L125.829 85.2608L125.839 85.173L125.85 85.0852L125.861 84.998L125.874 84.9108L125.888 84.8242L125.903 84.738L125.919 84.6517L125.936 84.5661L125.954 84.4808L125.973 84.3961L125.993 84.3114L126.014 84.2273L126.036 84.1436L126.059 84.0602L126.083 83.9773L126.108 83.8948L126.134 83.8126L126.162 83.7311L126.19 83.6498L126.219 83.5692L126.248 83.4892L126.28 83.4092L126.312 83.3298L126.344 83.2511L126.378 83.173L126.413 83.0951L126.448 83.0176L126.484 82.9411L126.522 82.8648L126.56 82.7889L126.599 82.7139L126.639 82.6392L126.68 82.5651L126.722 82.4917L126.764 82.4186L126.808 82.3461L126.852 82.2745L126.897 82.2033L126.943 82.1326L126.99 82.0626L127.037 81.9933L127.085 81.9245L127.135 81.8561L127.184 81.7886L127.235 81.7217L127.287 81.6554L127.339 81.5895L127.392 81.5245L127.446 81.4604L127.5 81.3967L127.555 81.3336L127.612 81.2711L127.668 81.2095L127.726 81.1486L127.784 81.0883L127.843 81.0286L127.903 80.9698L127.963 80.9117L128.023 80.8542L128.085 80.7973L128.148 80.7414L128.211 80.6861L128.274 80.6317L128.339 80.5779L128.404 80.5248L128.469 80.4726L128.536 80.4211L128.602 80.3704L128.67 80.3204L128.738 80.2714L128.807 80.2233L128.877 80.1754L128.947 80.1289L129.017 80.0829L129.088 80.0379L129.16 79.9936L129.233 79.9501L129.306 79.9076L129.379 79.8661L129.453 79.8251L129.528 79.7851L129.603 79.7461L129.679 79.7076L129.755 79.6704L129.832 79.6342L129.909 79.5986L129.987 79.5639L130.065 79.5301L130.144 79.4973L130.223 79.4654L130.303 79.4345L130.383 79.4045L130.464 79.3757L130.545 79.3476L130.627 79.3204L130.709 79.2945L130.791 79.2692L130.874 79.2451L130.957 79.222L131.041 79.1998L131.125 79.1789L131.21 79.1586L131.295 79.1395L131.38 79.1217L131.466 79.1045L131.552 79.0886L131.638 79.0739L131.725 79.0601L131.812 79.0473L131.899 79.0354L131.987 79.0248L132.075 79.0154L132.163 79.007L132.251 78.9998L132.34 78.9936L132.429 78.9886L132.518 78.9845L132.608 78.9817L132.698 78.9798L132.788 78.9795L132.877 78.9798V78.9798Z" fill="#173865"/>
<path fill-rule="evenodd" clip-rule="evenodd" d="M127.501 90.5158L127.601 90.523L127.701 90.5358L127.801 90.5548L127.898 90.5798L127.995 90.6105L128.089 90.647L128.181 90.6892L128.27 90.737L128.356 90.7898L128.438 90.848L128.517 90.9108L128.592 90.9783L128.663 91.0505L128.73 91.1264L128.791 91.2064L128.848 91.2901L128.899 91.377L128.946 91.4667L128.986 91.5592L129.021 91.6539L129.051 91.7505L129.074 91.8489L129.091 91.9483L129.103 92.0486L129.108 92.1495L129.107 92.2505L129.101 92.3514L129.087 92.4514L129.068 92.5505L129.043 92.6486L129.013 92.7445L128.976 92.8389L128.934 92.9305L128.886 93.0195L128.833 93.1058L128.668 93.3573L128.584 93.4848L128.499 93.6127L128.414 93.7408L128.327 93.8695L128.24 93.9986L128.152 94.1277L128.063 94.2573L127.973 94.387L127.883 94.5158L127.836 94.5814L127.79 94.6464L127.743 94.7114L127.696 94.7764L127.648 94.8411L127.601 94.9061L127.552 94.9711L127.504 95.0358L127.455 95.1005L127.406 95.1652L127.356 95.2298L127.306 95.2939L127.255 95.3586L127.204 95.4227L127.152 95.4867L127.101 95.5511L127.048 95.6148L126.995 95.6789L126.941 95.7424L126.888 95.8058L126.833 95.8689L126.778 95.9324L126.723 95.9952L126.667 96.0577L126.61 96.1202L126.553 96.1827L126.495 96.2442L126.437 96.3061L126.378 96.368L126.318 96.4289L126.258 96.4899L126.197 96.5505L126.136 96.6108L126.073 96.6708L126.011 96.7305L125.947 96.7895L125.883 96.8486L125.818 96.907L125.753 96.9652L125.686 97.023L125.62 97.0802L125.552 97.137L125.484 97.1933L125.414 97.2492L125.345 97.3049L125.274 97.3595L125.203 97.4139L125.131 97.4677L125.057 97.5211L124.984 97.5736L124.909 97.6261L124.834 97.6774L124.758 97.7283L124.681 97.7786L124.603 97.8283L124.525 97.8771L124.446 97.9252L124.366 97.973L124.285 98.0199L124.203 98.0658L124.121 98.1111L124.038 98.1558L123.954 98.1996L123.869 98.2424L123.783 98.2849L123.697 98.3261L123.61 98.3667L123.521 98.4064L123.433 98.4452L123.343 98.483L123.252 98.5202L123.161 98.5561L123.069 98.5914L122.976 98.6255L122.883 98.6589L122.791 98.6905L122.741 98.7071L122.694 98.7227L122.646 98.738L122.598 98.753L122.549 98.768L122.501 98.7827L122.452 98.7971L122.404 98.8111L122.355 98.8249L122.306 98.8386L122.256 98.8517L122.206 98.8649L122.156 98.8777L122.107 98.8905L122.057 98.9027L122.006 98.9149L121.956 98.9267L121.905 98.938L121.854 98.9496L121.803 98.9605L121.752 98.9711L121.7 98.9817L121.649 98.9921L121.597 99.0021L121.545 99.0117L121.493 99.0211L121.441 99.0302L121.388 99.0392L121.335 99.048L121.282 99.0564L121.229 99.0646L121.176 99.0724L121.122 99.0799L121.069 99.0871L121.015 99.0942L120.961 99.1008L120.906 99.1074L120.852 99.1136L120.797 99.1196L120.742 99.1255L120.687 99.1308L120.632 99.1358L120.577 99.1408L120.521 99.1452L120.466 99.1496L120.41 99.1536L120.354 99.1574L120.298 99.1608L120.241 99.1642L120.185 99.1671L120.128 99.1696L120.071 99.1721L120.013 99.1742L119.956 99.1758L119.898 99.1774L119.841 99.1786L119.783 99.1799L119.725 99.1805L119.666 99.1808L119.607 99.1811L119.548 99.1808L119.49 99.1805L119.431 99.1796L119.372 99.1786L119.314 99.1771L119.256 99.1755L119.198 99.1736L119.14 99.1714L119.082 99.1686L119.025 99.1658L118.967 99.1627L118.91 99.1592L118.853 99.1555L118.797 99.1514L118.74 99.1471L118.684 99.1424L118.628 99.1374L118.572 99.1324L118.516 99.1267L118.46 99.1208L118.405 99.1149L118.349 99.1083L118.295 99.1017L118.24 99.0949L118.185 99.0874L118.13 99.0799L118.076 99.0721L118.022 99.0639L117.968 99.0555L117.914 99.0467L117.861 99.038L117.807 99.0286L117.754 99.0192L117.701 99.0092L117.648 98.9992L117.596 98.9889L117.543 98.9783L117.491 98.9674L117.439 98.9561L117.387 98.9446L117.336 98.933L117.284 98.9208L117.233 98.9086L117.181 98.8961L117.131 98.8833L117.08 98.8702L117.029 98.8567L116.979 98.8433L116.929 98.8292L116.879 98.8152L116.829 98.8008L116.78 98.7861L116.731 98.7711L116.681 98.7561L116.632 98.7405L116.584 98.7249L116.535 98.7089L116.487 98.693L116.438 98.6764L116.391 98.6599L116.343 98.643L116.295 98.6258L116.248 98.6083L116.201 98.5908L116.154 98.573L116.105 98.5539L116.014 98.518L115.922 98.4802L115.831 98.4414L115.741 98.4021L115.651 98.3614L115.562 98.3202L115.474 98.278L115.387 98.2352L115.301 98.1911L115.215 98.1467L115.131 98.1014L115.047 98.0552L114.964 98.0083L114.882 97.9608L114.801 97.9127L114.72 97.8636L114.64 97.8139L114.561 97.7636L114.483 97.7127L114.406 97.6611L114.329 97.6089L114.254 97.5564L114.179 97.503L114.105 97.4489L114.031 97.3945L113.959 97.3399L113.887 97.2842L113.816 97.2286L113.746 97.172L113.676 97.1152L113.608 97.058L113.54 97.0005L113.473 96.9424L113.406 96.8839L113.341 96.8252L113.275 96.7658L113.211 96.7061L113.147 96.6464L113.084 96.5864L113.022 96.5258L112.96 96.4652L112.899 96.4039L112.839 96.343L112.78 96.2814L112.72 96.2195L112.662 96.1577L112.604 96.0955L112.547 96.0333L112.491 95.9705L112.434 95.908L112.379 95.8452L112.324 95.782L112.27 95.7189L112.216 95.6558L112.163 95.5927L112.11 95.5289L112.058 95.4658L112.007 95.402L111.956 95.3386L111.905 95.2749L111.855 95.2111L111.805 95.1474L111.756 95.0839L111.707 95.0202L111.659 94.9564L111.611 94.8927L111.564 94.8292L111.517 94.7655L111.47 94.702L111.424 94.6386L111.379 94.5752L111.333 94.512L111.287 94.4477L111.199 94.3227L111.112 94.1973L111.026 94.0723L110.941 93.948L110.858 93.8245L110.776 93.702L110.695 93.5802L110.615 93.4595L110.536 93.3398L110.382 93.1052L110.329 93.0189L110.281 92.9298L110.239 92.8383L110.202 92.7439L110.172 92.648L110.147 92.5498L110.128 92.4508L110.115 92.3505L110.108 92.2498L110.107 92.1489L110.113 92.048L110.124 91.9476L110.141 91.8483L110.165 91.7498L110.194 91.6533L110.229 91.5586L110.27 91.4661L110.316 91.3764L110.368 91.2895L110.425 91.2061L110.486 91.1261L110.553 91.0498L110.624 90.978L110.699 90.9105L110.778 90.8476L110.861 90.7895L110.946 90.7367L111.036 90.6889L111.127 90.6467L111.221 90.6105L111.318 90.5795L111.416 90.5545L111.515 90.5358L111.615 90.5226L111.716 90.5158L111.817 90.5151L111.917 90.5205L112.018 90.5317L112.117 90.5492L112.216 90.5726L112.312 90.602L112.407 90.637L112.499 90.678L112.589 90.7242L112.676 90.7758L112.76 90.8326L112.84 90.8942L112.916 90.9605L112.988 91.0314L113.055 91.1064L113.118 91.1855L113.176 91.2683L113.329 91.5008L113.405 91.6158L113.481 91.7305L113.557 91.8445L113.633 91.9583L113.709 92.0711L113.786 92.1833L113.862 92.2945L113.939 92.4051L114.017 92.5158L114.055 92.5692L114.094 92.6233L114.132 92.677L114.171 92.7308L114.211 92.7842L114.25 92.837L114.289 92.8898L114.328 92.9427L114.368 92.9945L114.408 93.0464L114.447 93.098L114.487 93.1489L114.527 93.1998L114.567 93.2505L114.608 93.3005L114.648 93.3502L114.689 93.3998L114.729 93.4486L114.77 93.4973L114.811 93.5458L114.852 93.5936L114.894 93.6408L114.936 93.6883L114.977 93.7348L115.019 93.7808L115.061 93.8267L115.103 93.8723L115.146 93.9173L115.188 93.9617L115.231 94.0058L115.274 94.0495L115.317 94.0927L115.36 94.1352L115.404 94.1777L115.448 94.2195L115.491 94.2608L115.536 94.3014L115.58 94.342L115.625 94.3817L115.67 94.4211L115.715 94.4602L115.76 94.4986L115.806 94.5367L115.851 94.5739L115.897 94.6111L115.944 94.6477L115.99 94.6836L116.037 94.7189L116.084 94.7539L116.132 94.7883L116.179 94.8224L116.227 94.8558L116.276 94.8889L116.324 94.9211L116.373 94.9533L116.423 94.9845L116.472 95.0155L116.522 95.0458L116.573 95.0758L116.624 95.1052L116.675 95.1342L116.726 95.1623L116.778 95.1905L116.831 95.2177L116.883 95.2442L116.936 95.2708L116.99 95.2964L117.045 95.3217L117.099 95.3464L117.155 95.3705L117.21 95.3942L117.266 95.4174L117.326 95.4408L117.351 95.4508L117.381 95.4617L117.41 95.4727L117.439 95.4833L117.468 95.4939L117.497 95.5042L117.526 95.5145L117.556 95.5245L117.586 95.5345L117.616 95.5442L117.646 95.5539L117.676 95.5636L117.707 95.573L117.737 95.5824L117.768 95.5914L117.799 95.6002L117.831 95.6092L117.862 95.6177L117.893 95.6264L117.925 95.6345L117.956 95.643L117.989 95.6508L118.021 95.6589L118.053 95.6667L118.086 95.6742L118.119 95.6817L118.152 95.6889L118.185 95.6961L118.218 95.703L118.252 95.7099L118.286 95.7164L118.319 95.723L118.353 95.7292L118.388 95.7355L118.422 95.7414L118.457 95.7474L118.492 95.753L118.527 95.7586L118.563 95.7639L118.599 95.7689L118.635 95.7739L118.67 95.7786L118.707 95.7833L118.744 95.7877L118.78 95.792L118.817 95.7961L118.854 95.7999L118.892 95.8036L118.93 95.8074L118.967 95.8105L119.006 95.8136L119.044 95.8167L119.083 95.8195L119.122 95.822L119.161 95.8242L119.2 95.8264L119.24 95.8286L119.28 95.8302L119.32 95.8317L119.36 95.8333L119.401 95.8342L119.441 95.8352L119.483 95.8361L119.524 95.8367L119.566 95.837H119.608H119.65L119.692 95.8367L119.734 95.8361L119.776 95.8355L119.817 95.8345L119.859 95.8333L119.9 95.832L119.94 95.8308L119.98 95.8289L120.021 95.827L120.06 95.8252L120.1 95.8227L120.139 95.8205L120.178 95.8177L120.216 95.8149L120.255 95.812L120.293 95.8089L120.331 95.8055L120.369 95.802L120.406 95.7983L120.444 95.7945L120.481 95.7905L120.517 95.7861L120.554 95.7817L120.59 95.7774L120.626 95.7727L120.662 95.7677L120.698 95.7627L120.733 95.7574L120.768 95.752L120.803 95.7467L120.837 95.7408L120.871 95.7352L120.906 95.7292L120.94 95.723L120.974 95.7167L121.007 95.7102L121.04 95.7036L121.073 95.6967L121.106 95.6899L121.139 95.683L121.171 95.6758L121.204 95.6683L121.236 95.6608L121.267 95.6533L121.299 95.6455L121.33 95.6377L121.361 95.6295L121.392 95.6214L121.423 95.613L121.454 95.6045L121.484 95.5958L121.515 95.587L121.545 95.5783L121.575 95.5692L121.604 95.5602L121.634 95.5508L121.663 95.5414L121.692 95.5317L121.719 95.523L121.779 95.5024L121.836 95.482L121.893 95.4611L121.948 95.4398L122.003 95.418L122.058 95.3958L122.112 95.373L122.166 95.3495L122.218 95.3258L122.271 95.3014L122.323 95.2764L122.374 95.2511L122.425 95.2255L122.476 95.1989L122.526 95.172L122.575 95.1448L122.625 95.117L122.674 95.0886L122.722 95.0598L122.77 95.0305L122.818 95.0008L122.866 94.9702L122.913 94.9395L122.96 94.908L123.006 94.8761L123.052 94.8439L123.098 94.8111L123.144 94.7777L123.19 94.7436L123.235 94.7092L123.28 94.6742L123.325 94.6386L123.369 94.6027L123.413 94.5664L123.457 94.5292L123.501 94.4917L123.545 94.4536L123.589 94.4148L123.632 94.3758L123.675 94.3364L123.718 94.2961L123.761 94.2555L123.804 94.2142L123.846 94.1727L123.888 94.1305L123.931 94.0877L123.973 94.0442L124.015 94.0005L124.056 93.9564L124.098 93.9114L124.14 93.8664L124.181 93.8208L124.223 93.7742L124.264 93.7277L124.305 93.6805L124.346 93.6327L124.387 93.5845L124.428 93.5358L124.469 93.4867L124.509 93.437L124.55 93.387L124.591 93.3364L124.631 93.2855L124.671 93.2342L124.712 93.1823L124.752 93.1302L124.792 93.0773L124.832 93.0242L124.872 92.9708L124.912 92.9167L124.952 92.8627L124.993 92.8077L125.033 92.7526L125.072 92.6973L125.112 92.6414L125.152 92.5861L125.232 92.4714L125.312 92.3564L125.392 92.2402L125.472 92.1223L125.552 92.0036L125.633 91.8836L125.713 91.7626L125.794 91.6405L125.876 91.5173L126.04 91.2676L126.098 91.1851L126.161 91.1061L126.228 91.0311L126.3 90.9601L126.376 90.8939L126.456 90.832L126.54 90.7755L126.627 90.7239L126.717 90.6776L126.809 90.637L126.904 90.6017L127.001 90.5726L127.099 90.5492L127.198 90.5317L127.299 90.5205L127.399 90.5151L127.501 90.5158V90.5158Z" fill="#173865"/>
<path d="M121.361 15.7471H117.92V65.2614H121.361V15.7471Z" fill="#173865"/>
<path fill-rule="evenodd" clip-rule="evenodd" d="M144.386 28.1255L119.629 40.5042V15.7471L144.386 28.1255Z" fill="white"/>
<path fill-rule="evenodd" clip-rule="evenodd" d="M146.978 27.471V28.7372L118.647 42.9026L117.92 42.4532V13.7554L118.647 13.3057L146.978 27.471V27.471ZM121.361 37.6994L140.551 28.1041L121.361 18.5091V37.6994V37.6994Z" fill="#173865"/>
<path fill-rule="evenodd" clip-rule="evenodd" d="M105.496 9.15684L105.553 9.16152L105.611 9.16934L105.668 9.18027L105.724 9.19402L105.779 9.21121L105.833 9.23121L105.886 9.25402L105.938 9.27965L105.989 9.30809L106.037 9.33934L106.084 9.37309L106.129 9.40934L106.172 9.44777L106.213 9.48871L106.252 9.53184L106.288 9.57684L106.322 9.62371L106.353 9.67246L106.381 9.72277L106.407 9.77465L106.43 9.82777L106.45 9.88215L106.467 9.93746L106.481 9.9934L106.492 10.0503L106.499 10.1078L106.504 10.1653L106.506 10.2231V18.3034L106.504 18.3612L106.499 18.4187L106.492 18.4759L106.481 18.5328L106.467 18.589L106.45 18.6443L106.43 18.6984L106.407 18.7515L106.381 18.8034L106.353 18.8537L106.322 18.9025L106.288 18.9497L106.252 18.9947L106.213 19.0378L106.172 19.0784L106.129 19.1172L106.084 19.1534L106.037 19.1872L105.989 19.2184L105.938 19.2468L105.886 19.2725L105.833 19.2953L105.779 19.3153L105.724 19.3322L105.668 19.3462L105.611 19.3572L105.553 19.365L105.496 19.3697L105.438 19.3712L105.38 19.3697L105.322 19.365L105.265 19.3572L105.208 19.3462L105.152 19.3322L105.097 19.3153L105.043 19.2953L104.989 19.2725L104.938 19.2468L104.887 19.2184L104.839 19.1872L104.792 19.1534L104.747 19.1172L104.704 19.0784L104.663 19.0378L104.624 18.9947L104.588 18.9497L104.554 18.9025L104.523 18.8537L104.494 18.8034L104.469 18.7515L104.446 18.6984L104.426 18.6443L104.409 18.589L104.395 18.5328L104.384 18.4759L104.376 18.4187L104.372 18.3612L104.37 18.3034V10.2231L104.372 10.1653L104.376 10.1078L104.384 10.0503L104.395 9.9934L104.409 9.93746L104.426 9.88215L104.446 9.82777L104.469 9.77465L104.494 9.72277L104.523 9.67246L104.554 9.62371L104.588 9.57684L104.624 9.53184L104.663 9.48871L104.704 9.44777L104.747 9.40934L104.792 9.37309L104.839 9.33934L104.887 9.30809L104.938 9.27965L104.989 9.25402L105.043 9.23121L105.097 9.21121L105.152 9.19402L105.208 9.18027L105.265 9.16934L105.322 9.16152L105.38 9.15684L105.438 9.15527L105.496 9.15684Z" fill="#ADC7EC"/>
<path fill-rule="evenodd" clip-rule="evenodd" d="M109.548 13.1852L109.606 13.1898L109.663 13.1977L109.72 13.2086L109.776 13.2227L109.831 13.2395L109.885 13.2595L109.938 13.2823L109.99 13.308L110.041 13.3364L110.089 13.3677L110.136 13.4014L110.181 13.4377L110.224 13.4761L110.265 13.517L110.304 13.5602L110.34 13.6052L110.374 13.6523L110.405 13.7011L110.433 13.7514L110.459 13.803L110.482 13.8561L110.502 13.9105L110.519 13.9658L110.533 14.022L110.544 14.0786L110.551 14.1361L110.556 14.1936L110.558 14.2514L110.556 14.3092L110.551 14.367L110.544 14.4242L110.533 14.4811L110.519 14.537L110.502 14.5923L110.482 14.6467L110.459 14.6998L110.433 14.7517L110.405 14.802L110.374 14.8508L110.34 14.8977L110.304 14.943L110.265 14.9858L110.224 15.0267L110.181 15.0655L110.136 15.1017L110.089 15.1355L110.041 15.1664L109.99 15.1948L109.938 15.2208L109.885 15.2436L109.831 15.2636L109.776 15.2805L109.72 15.2945L109.663 15.3052L109.606 15.313L109.548 15.3177L109.49 15.3192H101.41L101.352 15.3177L101.294 15.313L101.237 15.3052L101.18 15.2945L101.124 15.2805L101.069 15.2636L101.015 15.2436L100.961 15.2208L100.91 15.1948L100.859 15.1664L100.811 15.1355L100.764 15.1017L100.718 15.0655L100.676 15.0267L100.635 14.9858L100.596 14.943L100.56 14.8977L100.526 14.8508L100.495 14.802L100.466 14.7517L100.441 14.6998L100.418 14.6467L100.398 14.5923L100.381 14.537L100.367 14.4811L100.356 14.4242L100.348 14.367L100.343 14.3092L100.342 14.2514L100.343 14.1936L100.348 14.1361L100.356 14.0786L100.367 14.022L100.381 13.9658L100.398 13.9105L100.418 13.8561L100.441 13.803L100.466 13.7514L100.495 13.7011L100.526 13.6523L100.56 13.6052L100.596 13.5602L100.635 13.517L100.676 13.4761L100.718 13.4377L100.764 13.4014L100.811 13.3677L100.859 13.3364L100.91 13.308L100.961 13.2823L101.015 13.2595L101.069 13.2395L101.124 13.2227L101.18 13.2086L101.237 13.1977L101.294 13.1898L101.352 13.1852L101.41 13.1836H109.49L109.548 13.1852Z" fill="#ADC7EC"/>
<path fill-rule="evenodd" clip-rule="evenodd" d="M127.786 0.000936984L127.825 0.00406265L127.864 0.00937461L127.904 0.0168729L127.942 0.0265622L127.98 0.0381231L128.017 0.0518751L128.054 0.0674986L128.089 0.0849986L128.124 0.104687L128.157 0.125937L128.189 0.149062L128.22 0.174062L128.249 0.200312L128.278 0.228436L128.304 0.257811L128.329 0.288749L128.352 0.320937L128.373 0.354373L128.393 0.389061L128.41 0.424373L128.426 0.460937L128.44 0.498123L128.451 0.535936L128.461 0.574374L128.469 0.613436L128.474 0.652811L128.477 0.692186L128.478 0.731873V6.27062L128.477 6.31031L128.474 6.34968L128.469 6.38906L128.461 6.42812L128.451 6.46656L128.44 6.50437L128.426 6.54156L128.41 6.57812L128.393 6.61343L128.373 6.64812L128.352 6.68156L128.329 6.71374L128.304 6.74468L128.278 6.77406L128.249 6.80218L128.22 6.82875L128.189 6.85343L128.157 6.87656L128.124 6.89781L128.089 6.91749L128.054 6.93499L128.017 6.95062L127.98 6.96437L127.942 6.97593L127.904 6.98562L127.864 6.99312L127.825 6.99843L127.786 7.00156L127.746 7.00281L127.707 7.00156L127.667 6.99843L127.628 6.99312L127.589 6.98562L127.55 6.97593L127.512 6.96437L127.475 6.95062L127.439 6.93499L127.403 6.91749L127.369 6.89781L127.335 6.87656L127.303 6.85343L127.272 6.82875L127.243 6.80218L127.215 6.77406L127.188 6.74468L127.164 6.71374L127.14 6.68156L127.119 6.64812L127.099 6.61343L127.082 6.57812L127.066 6.54156L127.053 6.50437L127.041 6.46656L127.031 6.42812L127.024 6.38906L127.019 6.34968L127.015 6.31031L127.014 6.27062V0.731873L127.015 0.692186L127.019 0.652811L127.024 0.613436L127.031 0.574374L127.041 0.535936L127.053 0.498123L127.066 0.460937L127.082 0.424373L127.099 0.389061L127.119 0.354373L127.14 0.320937L127.164 0.288749L127.188 0.257811L127.215 0.228436L127.243 0.200312L127.272 0.174062L127.303 0.149062L127.335 0.125937L127.369 0.104687L127.403 0.0849986L127.439 0.0674986L127.475 0.0518751L127.512 0.0381231L127.55 0.0265622L127.589 0.0168729L127.628 0.00937461L127.667 0.00406265L127.707 0.000936984L127.746 0L127.786 0.000936984Z" fill="#ADC7EC"/>
<path fill-rule="evenodd" clip-rule="evenodd" d="M130.578 2.74752L130.618 2.75064L130.657 2.75627L130.696 2.76346L130.734 2.77314L130.772 2.78471L130.809 2.79846L130.846 2.81408L130.881 2.83189L130.916 2.85127L130.949 2.87252L130.981 2.89565L131.012 2.92065L131.042 2.9469L131.07 2.97502L131.096 3.00471L131.121 3.03565L131.144 3.06784L131.166 3.10096L131.185 3.13565L131.203 3.17128L131.218 3.20753L131.232 3.24471L131.244 3.28253L131.253 3.32128L131.261 3.36003L131.266 3.39941L131.269 3.43878L131.27 3.47847L131.269 3.51816L131.266 3.55753L131.261 3.59691L131.253 3.63597L131.244 3.67441L131.232 3.71222L131.218 3.74941L131.203 3.78597L131.185 3.82129L131.166 3.85598L131.144 3.88941L131.121 3.9216L131.096 3.95254L131.07 3.98192L131.042 4.01004L131.012 4.03629L130.981 4.06129L130.949 4.08442L130.916 4.10567L130.881 4.12536L130.846 4.14286L130.809 4.15848L130.772 4.17223L130.734 4.18379L130.696 4.19348L130.657 4.20098L130.618 4.20629L130.578 4.20942L130.538 4.21036H124.999L124.96 4.20942L124.92 4.20629L124.881 4.20098L124.842 4.19348L124.804 4.18379L124.766 4.17223L124.729 4.15848L124.692 4.14286L124.657 4.12536L124.622 4.10567L124.589 4.08442L124.557 4.06129L124.526 4.03629L124.496 4.01004L124.468 3.98192L124.442 3.95254L124.417 3.9216L124.394 3.88941L124.372 3.85598L124.353 3.82129L124.335 3.78597L124.319 3.74941L124.306 3.71222L124.294 3.67441L124.285 3.63597L124.277 3.59691L124.272 3.55753L124.269 3.51816L124.268 3.47847L124.269 3.43878L124.272 3.39941L124.277 3.36003L124.285 3.32128L124.294 3.28253L124.306 3.24471L124.319 3.20753L124.335 3.17128L124.353 3.13565L124.372 3.10096L124.394 3.06784L124.417 3.03565L124.442 3.00471L124.468 2.97502L124.496 2.9469L124.526 2.92065L124.557 2.89565L124.589 2.87252L124.622 2.85127L124.657 2.83189L124.692 2.81408L124.729 2.79846L124.766 2.78471L124.804 2.77314L124.842 2.76346L124.881 2.75627L124.92 2.75064L124.96 2.74752L124.999 2.74658H130.538L130.578 2.74752Z" fill="#ADC7EC"/>
<path fill-rule="evenodd" clip-rule="evenodd" d="M153.702 17.3355L153.756 17.3399L153.81 17.3471L153.863 17.3574L153.915 17.3702L153.967 17.3862L154.018 17.4049L154.067 17.4262L154.116 17.4502L154.163 17.4768L154.208 17.5062L154.252 17.5377L154.295 17.5715L154.335 17.6077L154.373 17.6459L154.409 17.6862L154.443 17.7284L154.475 17.7724L154.504 17.818L154.531 17.8649L154.555 17.9134L154.576 17.963L154.595 18.014L154.61 18.0655L154.623 18.118L154.634 18.1712L154.641 18.2249L154.645 18.279L154.647 18.333V25.8918L154.645 25.9459L154.641 25.9999L154.634 26.0534L154.623 26.1065L154.61 26.159L154.595 26.2109L154.576 26.2615L154.555 26.3112L154.531 26.3596L154.504 26.4068L154.475 26.4524L154.443 26.4965L154.409 26.5387L154.373 26.5787L154.335 26.6171L154.295 26.6531L154.252 26.6871L154.208 26.7187L154.163 26.7477L154.116 26.7743L154.067 26.7984L154.018 26.8199L153.967 26.8384L153.915 26.8543L153.863 26.8674L153.81 26.8777L153.756 26.8849L153.702 26.8893L153.648 26.8909L153.594 26.8893L153.54 26.8849L153.486 26.8777L153.433 26.8674L153.38 26.8543L153.329 26.8384L153.278 26.8199L153.228 26.7984L153.18 26.7743L153.133 26.7477L153.087 26.7187L153.043 26.6871L153.001 26.6531L152.961 26.6171L152.923 26.5787L152.886 26.5387L152.853 26.4965L152.821 26.4524L152.792 26.4068L152.765 26.3596L152.741 26.3112L152.72 26.2615L152.701 26.2109L152.685 26.159L152.672 26.1065L152.662 26.0534L152.655 25.9999L152.65 25.9459L152.649 25.8918V18.333L152.65 18.279L152.655 18.2249L152.662 18.1712L152.672 18.118L152.685 18.0655L152.701 18.014L152.72 17.963L152.741 17.9134L152.765 17.8649L152.792 17.818L152.821 17.7724L152.853 17.7284L152.886 17.6862L152.923 17.6459L152.961 17.6077L153.001 17.5715L153.043 17.5377L153.087 17.5062L153.133 17.4768L153.18 17.4502L153.228 17.4262L153.278 17.4049L153.329 17.3862L153.38 17.3702L153.433 17.3574L153.486 17.3471L153.54 17.3399L153.594 17.3355L153.648 17.334L153.702 17.3355Z" fill="#ADC7EC"/>
<path fill-rule="evenodd" clip-rule="evenodd" d="M157.477 21.1197L157.53 21.1241L157.584 21.1313L157.637 21.1416L157.69 21.1547L157.741 21.1704L157.792 21.1891L157.842 21.2107L157.89 21.2344L157.938 21.2613L157.983 21.2904L158.027 21.3219L158.069 21.3557L158.109 21.3919L158.148 21.43L158.184 21.4703L158.218 21.5125L158.249 21.5566L158.279 21.6022L158.305 21.6491L158.329 21.6979L158.35 21.7475L158.369 21.7982L158.385 21.85L158.398 21.9025L158.408 21.9557L158.416 22.0091L158.42 22.0632L158.421 22.1172L158.42 22.1713L158.416 22.225L158.408 22.2788L158.398 22.3319L158.385 22.3844L158.369 22.4363L158.35 22.4869L158.329 22.5366L158.305 22.585L158.279 22.6322L158.249 22.6778L158.218 22.7216L158.184 22.7638L158.148 22.8041L158.109 22.8425L158.069 22.8785L158.027 22.9125L157.983 22.9441L157.938 22.9732L157.89 22.9997L157.842 23.0238L157.792 23.045L157.741 23.0638L157.69 23.0797L157.637 23.0928L157.584 23.1028L157.53 23.1103L157.477 23.1147L157.423 23.1163H149.863L149.809 23.1147L149.756 23.1103L149.702 23.1028L149.649 23.0928L149.596 23.0797L149.545 23.0638L149.494 23.045L149.444 23.0238L149.396 22.9997L149.348 22.9732L149.303 22.9441L149.259 22.9125L149.217 22.8785L149.177 22.8425L149.138 22.8041L149.102 22.7638L149.068 22.7216L149.037 22.6778L149.008 22.6322L148.981 22.585L148.957 22.5366L148.936 22.4869L148.917 22.4363L148.901 22.3844L148.888 22.3319L148.878 22.2788L148.87 22.225L148.866 22.1713L148.865 22.1172L148.866 22.0632L148.87 22.0091L148.878 21.9557L148.888 21.9025L148.901 21.85L148.917 21.7982L148.936 21.7475L148.957 21.6979L148.981 21.6491L149.008 21.6022L149.037 21.5566L149.068 21.5125L149.102 21.4703L149.138 21.43L149.177 21.3919L149.217 21.3557L149.259 21.3219L149.303 21.2904L149.348 21.2613L149.396 21.2344L149.444 21.2107L149.494 21.1891L149.545 21.1704L149.596 21.1547L149.649 21.1416L149.702 21.1313L149.756 21.1241L149.809 21.1197L149.863 21.1182H157.423L157.477 21.1197Z" fill="#ADC7EC"/>
</svg>
